<svg width="16" height="15" viewBox="0 0 16 15" fill="none" xmlns="http://www.w3.org/2000/svg">
<path d="M7.98727 14.9945C6.02374 14.9945 4.06084 15.0033 2.09731 14.9877C1.65965 14.9846 1.27208 14.7776 0.92395 14.5146C0.406771 14.1237 0.115623 13.5889 0.022956 12.9637C-0.0384043 12.5486 0.0191993 12.1272 0.213298 11.7407C0.54577 11.0781 0.913932 10.4348 1.26894 9.78469C1.56072 9.25049 1.84811 8.71442 2.13988 8.18022C2.55563 7.41974 2.97514 6.66114 3.39151 5.90067C3.67827 5.37582 3.96066 4.8491 4.24742 4.32425C4.60744 3.666 4.96872 3.00901 5.33062 2.35201C5.56792 1.92066 5.78832 1.47934 6.04878 1.06232C6.41507 0.475139 6.95416 0.129186 7.64853 0.0275823C8.29657 -0.0677884 8.88701 0.0762026 9.41421 0.452075C9.72163 0.67149 9.94454 0.971939 10.1255 1.30168C10.5719 2.11888 11.019 2.93608 11.4648 3.7539C11.7484 4.27438 12.0283 4.79674 12.3125 5.31723C12.7352 6.09079 13.1616 6.86186 13.5842 7.63542C13.9317 8.2706 14.2748 8.90827 14.6217 9.54408C15.0005 10.2379 15.3874 10.9279 15.7594 11.6254C15.9009 11.8916 15.9672 12.1814 15.9917 12.4894C16.038 13.0678 15.8871 13.5802 15.5502 14.044C15.1908 14.5395 14.7025 14.8368 14.1033 14.9634C13.9186 15.0026 13.7338 14.9977 13.5491 14.9983C11.6952 15.0002 9.84122 14.9995 7.98727 14.9995C7.98727 14.9977 7.98727 14.9958 7.98727 14.9945ZM7.08064 7.06195C7.08064 7.06195 7.08126 7.06195 7.08189 7.06195C7.08189 7.87042 7.06624 8.67889 7.08815 9.48673C7.10005 9.93055 7.44442 10.269 7.86768 10.322C8.47878 10.3987 8.9515 9.97481 8.95275 9.32965C8.95526 7.82678 8.95463 6.32454 8.9515 4.82167C8.9515 4.70636 8.93272 4.5873 8.90266 4.47572C8.80499 4.11855 8.46062 3.79691 7.93593 3.81748C7.49701 3.83431 7.08627 4.24696 7.08314 4.66833C7.07751 5.4662 7.08126 6.26408 7.08126 7.06195H7.08064ZM8.00543 11.2925C7.48825 11.2346 7.08627 11.747 7.07438 12.1733C7.05998 12.6826 7.51955 13.1538 8.01294 13.132C8.56142 13.1077 8.94774 12.7144 8.94461 12.202C8.94148 11.6915 8.55141 11.2614 8.0048 11.2925H8.00543Z" fill="#E53E44"/>
<path d="M7.08069 7.0623C7.08069 6.26443 7.07631 5.46656 7.08257 4.66868C7.0857 4.24731 7.49644 3.83528 7.93536 3.81783C8.46005 3.79726 8.80504 4.11952 8.90209 4.47607C8.93277 4.58765 8.95093 4.70609 8.95093 4.82203C8.95406 6.32489 8.95469 7.82714 8.95218 9.33C8.95093 9.97516 8.47821 10.399 7.86711 10.3224C7.44385 10.2694 7.09948 9.9309 7.08758 9.48709C7.06629 8.67924 7.08132 7.87077 7.08132 7.0623C7.08132 7.0623 7.0807 7.0623 7.08007 7.0623H7.08069Z" fill="#F7FAFC"/>
<path d="M8.00546 11.2926C8.55144 11.2614 8.94214 11.6915 8.94527 12.202C8.9484 12.7144 8.56208 13.1078 8.0136 13.1321C7.51959 13.1539 7.06064 12.6826 7.07504 12.1734C7.08693 11.747 7.48891 11.2346 8.00609 11.2926H8.00546Z" fill="#F7FAFC"/>
</svg>
