<svg width="24" height="24" viewBox="0 0 24 24" fill="none" xmlns="http://www.w3.org/2000/svg">
<path d="M9.229 18C9.229 18.394 9.3066 18.7841 9.45737 19.1481C9.60813 19.512 9.82911 19.8427 10.1077 20.1213C10.3863 20.3999 10.717 20.6209 11.081 20.7716C11.4449 20.9224 11.835 21 12.229 21C12.623 21 13.0131 20.9224 13.3771 20.7716C13.741 20.6209 14.0717 20.3999 14.3503 20.1213C14.6289 19.8427 14.8499 19.512 15.0006 19.1481C15.1514 18.7841 15.229 18.394 15.229 18L12.229 18H9.229Z" fill="#B8B8B8"/>
<path d="M9.229 18C9.229 18.394 9.3066 18.7841 9.45737 19.1481C9.60813 19.512 9.82911 19.8427 10.1077 20.1213C10.3863 20.3999 10.717 20.6209 11.081 20.7716C11.4449 20.9224 11.835 21 12.229 21C12.623 21 13.0131 20.9224 13.3771 20.7716C13.741 20.6209 14.0717 20.3999 14.3503 20.1213C14.6289 19.8427 14.8499 19.512 15.0006 19.1481C15.1514 18.7841 15.229 18.394 15.229 18L12.229 18H9.229Z" fill="black" fill-opacity="0.2"/>
<path d="M9.229 18C9.229 18.394 9.3066 18.7841 9.45737 19.1481C9.60813 19.512 9.82911 19.8427 10.1077 20.1213C10.3863 20.3999 10.717 20.6209 11.081 20.7716C11.4449 20.9224 11.835 21 12.229 21C12.623 21 13.0131 20.9224 13.3771 20.7716C13.741 20.6209 14.0717 20.3999 14.3503 20.1213C14.6289 19.8427 14.8499 19.512 15.0006 19.1481C15.1514 18.7841 15.229 18.394 15.229 18L12.229 18H9.229Z" fill="black" fill-opacity="0.2"/>
<path fill-rule="evenodd" clip-rule="evenodd" d="M14.0234 4.29494C13.4588 4.10345 12.855 4 12.2292 4C9.38266 4 6.99136 6.14032 6.67701 8.96942L6.42521 11.2356L6.41876 11.2933C6.28981 12.417 5.92405 13.5005 5.34561 14.4725L5.31582 14.5222L4.73779 15.4856C4.21324 16.3599 3.95096 16.797 4.00758 17.1559C4.04525 17.3946 4.16814 17.6117 4.35351 17.7668C4.63208 18 5.14185 18 6.1614 18H18.2969C19.3165 18 19.8263 18 20.1048 17.7668C20.2902 17.6117 20.4131 17.3946 20.4508 17.1559C20.5074 16.797 20.2451 16.3599 19.7205 15.4856L19.1425 14.5222L19.1127 14.4725C18.6565 13.7059 18.3326 12.8698 18.1528 11.9994C15.4266 11.9586 13.2292 9.73592 13.2292 7C13.2292 6.00331 13.5208 5.07473 14.0234 4.29494ZM16.5032 5.98883C16.329 6.28551 16.2292 6.63109 16.2292 7C16.2292 7.94979 16.8912 8.74494 17.779 8.94914C17.6496 7.82135 17.19 6.80382 16.5032 5.98883Z" fill="#B8B8B8"/>
<path fill-rule="evenodd" clip-rule="evenodd" d="M14.0234 4.29494C13.4588 4.10345 12.855 4 12.2292 4C9.38266 4 6.99136 6.14032 6.67701 8.96942L6.42521 11.2356L6.41876 11.2933C6.28981 12.417 5.92405 13.5005 5.34561 14.4725L5.31582 14.5222L4.73779 15.4856C4.21324 16.3599 3.95096 16.797 4.00758 17.1559C4.04525 17.3946 4.16814 17.6117 4.35351 17.7668C4.63208 18 5.14185 18 6.1614 18H18.2969C19.3165 18 19.8263 18 20.1048 17.7668C20.2902 17.6117 20.4131 17.3946 20.4508 17.1559C20.5074 16.797 20.2451 16.3599 19.7205 15.4856L19.1425 14.5222L19.1127 14.4725C18.6565 13.7059 18.3326 12.8698 18.1528 11.9994C15.4266 11.9586 13.2292 9.73592 13.2292 7C13.2292 6.00331 13.5208 5.07473 14.0234 4.29494ZM16.5032 5.98883C16.329 6.28551 16.2292 6.63109 16.2292 7C16.2292 7.94979 16.8912 8.74494 17.779 8.94914C17.6496 7.82135 17.19 6.80382 16.5032 5.98883Z" fill="black" fill-opacity="0.2"/>
<path fill-rule="evenodd" clip-rule="evenodd" d="M14.0234 4.29494C13.4588 4.10345 12.855 4 12.2292 4C9.38266 4 6.99136 6.14032 6.67701 8.96942L6.42521 11.2356L6.41876 11.2933C6.28981 12.417 5.92405 13.5005 5.34561 14.4725L5.31582 14.5222L4.73779 15.4856C4.21324 16.3599 3.95096 16.797 4.00758 17.1559C4.04525 17.3946 4.16814 17.6117 4.35351 17.7668C4.63208 18 5.14185 18 6.1614 18H18.2969C19.3165 18 19.8263 18 20.1048 17.7668C20.2902 17.6117 20.4131 17.3946 20.4508 17.1559C20.5074 16.797 20.2451 16.3599 19.7205 15.4856L19.1425 14.5222L19.1127 14.4725C18.6565 13.7059 18.3326 12.8698 18.1528 11.9994C15.4266 11.9586 13.2292 9.73592 13.2292 7C13.2292 6.00331 13.5208 5.07473 14.0234 4.29494ZM16.5032 5.98883C16.329 6.28551 16.2292 6.63109 16.2292 7C16.2292 7.94979 16.8912 8.74494 17.779 8.94914C17.6496 7.82135 17.19 6.80382 16.5032 5.98883Z" fill="black" fill-opacity="0.2"/>
<circle cx="18.229" cy="7" r="2.5" fill="#B8B8B8"/>
<circle cx="18.229" cy="7" r="2.5" fill="black" fill-opacity="0.2"/>
<circle cx="18.229" cy="7" r="2.5" fill="black" fill-opacity="0.2"/>
<circle cx="18.229" cy="7" r="2.5" stroke="#B8B8B8"/>
<circle cx="18.229" cy="7" r="2.5" stroke="black" stroke-opacity="0.2"/>
<circle cx="18.229" cy="7" r="2.5" stroke="black" stroke-opacity="0.2"/>
<circle cx="18" cy="7" r="3" fill="#E53E44"/>
</svg>
