<svg width="61" height="60" viewBox="0 0 61 60" fill="none" xmlns="http://www.w3.org/2000/svg">
<circle cx="30.0015" cy="30" r="30" fill="#E2EEFD"/>
<g clip-path="url(#clip0_21_1027)">
<path d="M43.2322 21H30.1169H17.0015V23.9304H19.6645C19.6837 24.1102 19.7049 24.29 19.7347 24.4656C20.5175 29.4663 24.8673 33.2931 30.1169 33.2931C35.3664 33.2931 39.7162 29.4663 40.499 24.4656C40.5266 24.2879 40.55 24.1102 40.5692 23.9304H43.2322V21ZM37.8104 24.0192C37.2297 27.7254 34.0072 30.5621 30.1169 30.5621C26.2265 30.5621 23.0019 27.7254 22.4233 24.0192C22.4191 23.9896 22.4169 23.96 22.4127 23.9304H37.8232C37.8189 23.96 37.8168 23.9896 37.8125 24.0192H37.8104Z" fill="#4D87DE"/>
<path d="M32.0653 39.747C32.0036 39.4784 31.893 39.2245 31.7718 38.977C31.6569 38.7422 31.5293 38.5159 31.3953 38.2917C31.2294 38.0145 31.055 37.7395 30.8784 37.4688C30.687 37.1768 30.4934 36.8828 30.2913 36.5972C30.2148 36.4872 30.0957 36.4365 29.9765 36.5613C29.9404 36.5993 29.9106 36.6395 29.883 36.6818C29.5767 37.1388 29.2661 37.5936 28.9811 38.0632C28.8535 38.2726 28.7258 38.4799 28.611 38.6957C28.4515 38.9982 28.2983 39.3028 28.2026 39.6349C28.1664 39.7618 28.1345 39.8909 28.1345 40.0199C28.1345 40.1193 28.143 40.223 28.16 40.3245C28.1962 40.5467 28.2664 40.7582 28.3706 40.9549C28.4727 41.1474 28.6089 41.3209 28.7705 41.469C28.8832 41.5726 29.0045 41.6615 29.1364 41.7376C29.4341 41.9047 29.7532 41.9957 30.1425 41.9978C30.1935 42.002 30.2892 41.9872 30.3849 41.9767C30.4977 41.9618 30.6062 41.9386 30.7125 41.9047C30.9167 41.837 31.1081 41.7461 31.2826 41.6192C31.4229 41.5176 31.5506 41.3992 31.659 41.2638C31.7718 41.1242 31.8675 40.9718 31.9356 40.8068C32.0228 40.5995 32.0717 40.3859 32.0908 40.1617C32.1036 40.0199 32.0951 39.8824 32.0632 39.747H32.0653Z" fill="#4D87DE"/>
<path d="M40.131 36.5527C40.0693 36.2841 39.9587 36.0302 39.8374 35.7827C39.7226 35.5479 39.595 35.3216 39.461 35.0973C39.2951 34.8202 39.1206 34.5452 38.9441 34.2744C38.7527 33.9825 38.5591 33.6885 38.357 33.4029C38.2804 33.2929 38.1613 33.2421 38.0422 33.3669C38.0061 33.405 37.9763 33.4452 37.9486 33.4875C37.6423 33.9444 37.3318 34.3992 37.0468 34.8689C36.9191 35.0783 36.7915 35.2856 36.6767 35.5014C36.5171 35.8039 36.364 36.1085 36.2683 36.4406C36.2321 36.5675 36.2002 36.6966 36.2002 36.8256C36.2002 36.925 36.2087 37.0287 36.2257 37.1302C36.2619 37.3523 36.3321 37.5639 36.4363 37.7606C36.5384 37.9531 36.6745 38.1266 36.8362 38.2746C36.9489 38.3783 37.0702 38.4671 37.202 38.5433C37.4998 38.7104 37.8189 38.8014 38.2081 38.8035C38.2592 38.8077 38.3549 38.7929 38.4506 38.7823C38.5633 38.7675 38.6718 38.7442 38.7782 38.7104C38.9824 38.6427 39.1738 38.5517 39.3482 38.4248C39.4886 38.3233 39.6162 38.2048 39.7247 38.0694C39.8374 37.9298 39.9332 37.7775 40.0012 37.6125C40.0884 37.4052 40.1374 37.1916 40.1565 36.9673C40.1693 36.8256 40.1608 36.6881 40.1289 36.5527H40.131Z" fill="#4D87DE"/>
<path d="M24.361 36.5527C24.2993 36.2841 24.1887 36.0302 24.0674 35.7827C23.9526 35.5479 23.8249 35.3216 23.6909 35.0973C23.525 34.8202 23.3506 34.5452 23.1741 34.2744C22.9826 33.9825 22.7891 33.6885 22.587 33.4029C22.5104 33.2929 22.3913 33.2421 22.2722 33.3669C22.236 33.405 22.2063 33.4452 22.1786 33.4875C21.8723 33.9444 21.5618 34.3992 21.2767 34.8689C21.1491 35.0783 21.0215 35.2856 20.9066 35.5014C20.7471 35.8039 20.594 36.1085 20.4982 36.4406C20.4621 36.5675 20.4302 36.6966 20.4302 36.8256C20.4302 36.925 20.4387 37.0287 20.4557 37.1302C20.4919 37.3523 20.5621 37.5639 20.6663 37.7606C20.7684 37.9531 20.9045 38.1266 21.0662 38.2746C21.1789 38.3783 21.3001 38.4671 21.432 38.5433C21.7298 38.7104 22.0489 38.8014 22.4381 38.8035C22.4892 38.8077 22.5849 38.7929 22.6806 38.7823C22.7933 38.7675 22.9018 38.7442 23.0082 38.7104C23.2124 38.6427 23.4038 38.5517 23.5782 38.4248C23.7186 38.3233 23.8462 38.2048 23.9547 38.0694C24.0674 37.9298 24.1631 37.7775 24.2312 37.6125C24.3184 37.4052 24.3673 37.1916 24.3865 36.9673C24.3992 36.8256 24.3907 36.6881 24.3588 36.5527H24.361Z" fill="#4D87DE"/>
</g>
<defs>
<clipPath id="clip0_21_1027">
<rect width="26.2308" height="22" fill="white" transform="translate(17.0015 20)"/>
</clipPath>
</defs>
</svg>
