<svg width="77" height="61" viewBox="0 0 77 61" fill="none" xmlns="http://www.w3.org/2000/svg">
<g clip-path="url(#clip0_33_714)">
<path d="M63.4291 30.9421C63.4291 35.8536 61.364 40.2739 58.1188 43.5154C56.5453 41.5508 54.1852 40.2739 51.235 40.2739C52.8084 32.4156 44.5479 26.3254 37.6641 29.9598C36.5824 26.5218 34.1239 23.7714 30.8787 22.298C33.9272 17.0919 39.5326 13.5557 46.023 13.5557C55.6603 13.5557 63.4291 21.3157 63.4291 30.9421V30.9421Z" fill="url(#paint0_linear_33_714)"/>
<path d="M46.0229 9.72464C44.9412 9.72464 44.0562 8.84058 44.0562 7.76006V1.96457C44.0562 0.884058 44.9412 0 46.0229 0C47.1047 0 47.9897 0.884058 47.9897 1.96457V7.76006C47.9897 8.84058 47.1047 9.72464 46.0229 9.72464Z" fill="url(#paint1_linear_33_714)"/>
<path d="M75.1316 32.9067H69.3296C68.2479 32.9067 67.3628 32.0226 67.3628 30.9421C67.3628 29.8616 68.2479 28.9775 69.3296 28.9775H75.1316C76.2134 28.9775 77.0984 29.8616 77.0984 30.9421C77.0984 32.0226 76.2134 32.9067 75.1316 32.9067Z" fill="url(#paint2_linear_33_714)"/>
<path d="M62.4457 16.5025C60.774 16.5025 59.8889 14.4397 61.069 13.1627L65.1992 9.03713C65.986 8.2513 67.166 8.2513 67.9528 9.03713C68.7395 9.82296 68.7395 11.0017 67.9528 11.7875L63.8225 15.9131C63.8225 15.9131 62.9374 16.5025 62.4457 16.5025V16.5025Z" fill="url(#paint3_linear_33_714)"/>
<path d="M66.5761 53.4366C66.0844 53.4366 65.5927 53.2401 65.1993 52.8472L61.069 48.7216C60.2823 47.9358 60.2823 46.757 61.069 45.9712C61.8558 45.1854 63.0358 45.1854 63.8226 45.9712L67.9528 50.0968C69.1329 51.2756 68.2478 53.4366 66.5761 53.4366V53.4366Z" fill="url(#paint4_linear_33_714)"/>
<path d="M29.6002 16.5025C29.1085 16.5025 28.6168 16.306 28.2235 15.9131L24.0932 11.7875C23.3065 11.0017 23.3065 9.82296 24.0932 9.03713C24.8799 8.2513 26.06 8.2513 26.8467 9.03713L30.977 13.1627C32.1571 14.3415 31.272 16.5025 29.6002 16.5025V16.5025Z" fill="url(#paint5_linear_33_714)"/>
<path d="M46.7156 43.7121L46.3563 45.5066H48.1864H48.966C51.1724 45.5066 52.7084 46.3007 53.7155 47.4837C54.75 48.6989 55.3403 50.4627 55.3403 52.5524C55.3403 56.4374 52.1782 59.5983 48.2848 59.5983H11.309C5.8752 59.5983 1.40161 54.801 1.40161 49.7038C1.40161 44.6109 5.40478 40.3305 10.5484 39.9024L12.0402 39.7782L11.919 38.2862C11.3991 31.8809 16.4236 26.4502 22.7164 26.4502C27.6263 26.4502 31.6967 29.7183 33.0861 34.142L33.6224 35.8494L35.2098 35.0231C41.0827 31.966 48.0399 37.098 46.7156 43.7121Z" fill="#F4F4F4" stroke="#E7E7E7" stroke-width="3"/>
</g>
<defs>
<linearGradient id="paint0_linear_33_714" x1="26.4534" y1="5.69737" x2="64.7688" y2="38.8433" gradientUnits="userSpaceOnUse">
<stop stop-color="#FAB300"/>
<stop offset="1" stop-color="#F6DB00"/>
</linearGradient>
<linearGradient id="paint1_linear_33_714" x1="35.2056" y1="-4.42029" x2="73.5211" y2="28.6274" gradientUnits="userSpaceOnUse">
<stop stop-color="#FAB300"/>
<stop offset="1" stop-color="#F6DB00"/>
</linearGradient>
<linearGradient id="paint2_linear_33_714" x1="33.4356" y1="-2.35739" x2="71.7511" y2="30.6903" gradientUnits="userSpaceOnUse">
<stop stop-color="#FAB300"/>
<stop offset="1" stop-color="#F6DB00"/>
</linearGradient>
<linearGradient id="paint3_linear_33_714" x1="39.3359" y1="-9.2334" x2="77.6513" y2="23.9125" gradientUnits="userSpaceOnUse">
<stop stop-color="#FAB300"/>
<stop offset="1" stop-color="#F6DB00"/>
</linearGradient>
<linearGradient id="paint4_linear_33_714" x1="21.0448" y1="11.9841" x2="59.3604" y2="45.0317" gradientUnits="userSpaceOnUse">
<stop stop-color="#FAB300"/>
<stop offset="1" stop-color="#F6DB00"/>
</linearGradient>
<linearGradient id="paint5_linear_33_714" x1="23.6015" y1="9.03713" x2="61.8186" y2="42.1829" gradientUnits="userSpaceOnUse">
<stop stop-color="#FAB300"/>
<stop offset="1" stop-color="#F6DB00"/>
</linearGradient>
<clipPath id="clip0_33_714">
<rect width="77" height="61" fill="white"/>
</clipPath>
</defs>
</svg>
