<svg width="19" height="14" viewBox="0 0 19 14" fill="none" xmlns="http://www.w3.org/2000/svg">
<g clip-path="url(#clip0_93_491)">
<path d="M0.00323905 6.99838C0.00323905 4.86837 0.00161953 2.73673 0.00323905 0.606721C0.00323905 0.0778679 0.0809763 0 0.600845 0C2.91677 0 5.23269 0 7.55023 0C8.02476 0 8.15594 0.137891 8.15756 0.626188C8.15756 0.80139 8.1608 0.976593 8.15756 1.1518C8.14136 1.84936 7.64741 2.3409 6.94615 2.34253C5.58575 2.34739 4.22535 2.34253 2.86494 2.34415C2.38556 2.34415 2.34184 2.39119 2.34022 2.88436C2.3386 3.70684 2.34669 4.52932 2.33536 5.3518C2.3305 5.69247 2.46168 5.83523 2.80988 5.83036C3.61802 5.81576 4.42617 5.82387 5.23431 5.82711C5.67644 5.82711 5.83516 5.97961 5.82058 6.43221C5.81086 6.73557 5.86917 7.03569 5.75094 7.34229C5.54202 7.88575 5.20678 8.16315 4.62861 8.16964C4.00995 8.17613 3.38967 8.17775 2.77101 8.16964C2.46006 8.16477 2.3386 8.30591 2.34022 8.60602C2.34507 9.46906 2.34831 10.3321 2.3386 11.1951C2.33374 11.5455 2.49569 11.6591 2.82769 11.6575C4.12008 11.6477 5.41408 11.6753 6.70646 11.6477C7.75591 11.625 8.24987 12.2707 8.16242 13.1305C8.15108 13.2505 8.1608 13.3738 8.1608 13.4939C8.1608 13.8199 7.99398 13.9968 7.67332 13.9968C5.27642 14 2.87952 13.9968 0.482619 14C0.0761178 14 0 13.7696 0 13.4306C0.00485858 11.286 0.00323905 9.14299 0.00323905 6.99838Z" fill="white"/>
<path d="M10.5043 7.0356C10.5043 5.96979 10.4979 4.90559 10.5043 3.83977C10.5173 2.04395 11.9765 0.403854 13.7693 0.0858931C15.9719 -0.305069 18.0416 1.03977 18.5421 3.25252C18.7024 3.95982 18.6684 4.69308 18.6522 5.41822C18.6489 5.60478 18.5161 5.78647 18.3914 5.78972C17.8716 5.80269 17.3323 5.97628 16.8335 5.65831C16.4772 5.4312 16.3071 5.12622 16.3152 4.70281C16.3282 4.11718 16.3055 3.55101 15.9346 3.03027C15.6042 2.56955 14.7151 2.19319 13.9798 2.43004C13.3984 2.6166 12.817 3.28497 12.8267 3.92575C12.8543 5.9341 12.8494 7.94406 12.8267 9.9524C12.8186 10.6678 13.1604 11.1626 13.7256 11.4692C14.3151 11.7888 14.9483 11.7385 15.5265 11.3492C16.0933 10.9679 16.2909 10.4066 16.3233 9.75449C16.3411 9.37813 16.2537 9.00177 16.5112 8.63838C16.7201 8.34151 16.9825 8.22147 17.295 8.18415C17.6011 8.14684 17.9137 8.16793 18.223 8.17442C18.474 8.18091 18.6392 8.33178 18.6489 8.57187C18.6943 9.88427 18.6894 11.1983 17.844 12.3112C17.1833 13.1807 16.3168 13.7339 15.2172 13.9253C13.7612 14.18 12.553 13.7258 11.57 12.6729C10.927 11.9851 10.4979 11.1756 10.506 10.1909C10.5141 9.13966 10.5076 8.08844 10.506 7.0356H10.5043Z" fill="white"/>
</g>
<defs>
<clipPath id="clip0_93_491">
<rect width="18.6667" height="14" fill="white"/>
</clipPath>
</defs>
</svg>
