<svg width="61" height="60" viewBox="0 0 61 60" fill="none" xmlns="http://www.w3.org/2000/svg">
<circle cx="30.0015" cy="30" r="30" fill="#EFECFD"/>
<g clip-path="url(#clip0_20_874)">
<path d="M15.8978 40.5393C15.4843 40.5369 15.1565 40.2868 15.0308 39.8946C14.9251 39.5635 15.1131 39.1172 15.4291 38.893C16.5804 38.078 17.7106 37.2361 18.8137 36.3565C20.2634 35.2023 21.6509 33.9669 23.1887 32.9242C23.8231 32.4932 24.4939 32.1292 25.2529 31.9578C25.5853 31.8826 25.6405 31.8908 25.6676 32.2349C25.731 33.0416 26.0588 33.7368 26.5205 34.3791C26.7813 34.7419 27.0903 35.0731 27.4697 35.3044C27.7505 35.4747 27.6413 35.5592 27.4897 35.7236C26.665 36.6137 25.59 37.0728 24.4881 37.4921C23.0595 38.0357 21.5886 38.4585 20.1448 38.9599C18.8149 39.4214 17.505 39.931 16.2068 40.4723C16.0964 40.5181 15.9906 40.5487 15.8978 40.5393Z" fill="#7468E4"/>
<path d="M15.8978 40.5393C15.4843 40.5369 15.1565 40.2868 15.0308 39.8946C14.9251 39.5635 15.1131 39.1172 15.4291 38.893C16.5804 38.078 17.7106 37.2361 18.8137 36.3565C20.2634 35.2023 21.6509 33.9669 23.1887 32.9242C23.8231 32.4932 24.4939 32.1292 25.2529 31.9578C25.5853 31.8826 25.6405 31.8908 25.6676 32.2349C25.731 33.0416 26.0588 33.7368 26.5205 34.3791C26.7813 34.7419 27.0903 35.0731 27.4697 35.3044C27.7505 35.4747 27.6413 35.5592 27.4897 35.7236C26.665 36.6137 25.59 37.0728 24.4881 37.4921C23.0595 38.0357 21.5886 38.4585 20.1448 38.9599C18.8149 39.4214 17.505 39.931 16.2068 40.4723C16.0964 40.5181 15.9906 40.5487 15.8978 40.5393Z" fill="black" fill-opacity="0.1"/>
<path d="M15.8978 40.5393C15.4843 40.5369 15.1565 40.2868 15.0308 39.8946C14.9251 39.5635 15.1131 39.1172 15.4291 38.893C16.5804 38.078 17.7106 37.2361 18.8137 36.3565C20.2634 35.2023 21.6509 33.9669 23.1887 32.9242C23.8231 32.4932 24.4939 32.1292 25.2529 31.9578C25.5853 31.8826 25.6405 31.8908 25.6676 32.2349C25.731 33.0416 26.0588 33.7368 26.5205 34.3791C26.7813 34.7419 27.0903 35.0731 27.4697 35.3044C27.7505 35.4747 27.6413 35.5592 27.4897 35.7236C26.665 36.6137 25.59 37.0728 24.4881 37.4921C23.0595 38.0357 21.5886 38.4585 20.1448 38.9599C18.8149 39.4214 17.505 39.931 16.2068 40.4723C16.0964 40.5181 15.9906 40.5487 15.8978 40.5393Z" fill="black" fill-opacity="0.1"/>
<path d="M44.0804 40.5439C43.7561 40.5299 43.4801 40.3537 43.1969 40.2328C41.3407 39.4413 39.4223 38.8284 37.512 38.1872C36.3149 37.7856 35.1036 37.411 33.9852 36.8016C33.4413 36.5045 32.9537 36.144 32.5202 35.6978C32.3146 35.4852 32.3981 35.3749 32.579 35.2692C33.009 35.0179 33.3179 34.6468 33.5975 34.2523C34.0628 33.597 34.3353 32.8655 34.3541 32.0552C34.3576 31.8943 34.4422 31.9061 34.5409 31.9284C35.281 32.0916 35.9683 32.3817 36.6074 32.7903C37.7575 33.5277 38.7937 34.4131 39.8534 35.2692C41.3149 36.447 42.7705 37.6341 44.3212 38.698C44.4552 38.7896 44.5797 38.8976 44.6983 39.0092C44.9838 39.2757 45.0743 39.6762 44.9345 40.0179C44.8099 40.3232 44.4505 40.5428 44.078 40.5451L44.0804 40.5439Z" fill="#7468E4"/>
<path d="M44.0804 40.5439C43.7561 40.5299 43.4801 40.3537 43.1969 40.2328C41.3407 39.4413 39.4223 38.8284 37.512 38.1872C36.3149 37.7856 35.1036 37.411 33.9852 36.8016C33.4413 36.5045 32.9537 36.144 32.5202 35.6978C32.3146 35.4852 32.3981 35.3749 32.579 35.2692C33.009 35.0179 33.3179 34.6468 33.5975 34.2523C34.0628 33.597 34.3353 32.8655 34.3541 32.0552C34.3576 31.8943 34.4422 31.9061 34.5409 31.9284C35.281 32.0916 35.9683 32.3817 36.6074 32.7903C37.7575 33.5277 38.7937 34.4131 39.8534 35.2692C41.3149 36.447 42.7705 37.6341 44.3212 38.698C44.4552 38.7896 44.5797 38.8976 44.6983 39.0092C44.9838 39.2757 45.0743 39.6762 44.9345 40.0179C44.8099 40.3232 44.4505 40.5428 44.078 40.5451L44.0804 40.5439Z" fill="black" fill-opacity="0.1"/>
<path d="M44.0804 40.5439C43.7561 40.5299 43.4801 40.3537 43.1969 40.2328C41.3407 39.4413 39.4223 38.8284 37.512 38.1872C36.3149 37.7856 35.1036 37.411 33.9852 36.8016C33.4413 36.5045 32.9537 36.144 32.5202 35.6978C32.3146 35.4852 32.3981 35.3749 32.579 35.2692C33.009 35.0179 33.3179 34.6468 33.5975 34.2523C34.0628 33.597 34.3353 32.8655 34.3541 32.0552C34.3576 31.8943 34.4422 31.9061 34.5409 31.9284C35.281 32.0916 35.9683 32.3817 36.6074 32.7903C37.7575 33.5277 38.7937 34.4131 39.8534 35.2692C41.3149 36.447 42.7705 37.6341 44.3212 38.698C44.4552 38.7896 44.5797 38.8976 44.6983 39.0092C44.9838 39.2757 45.0743 39.6762 44.9345 40.0179C44.8099 40.3232 44.4505 40.5428 44.078 40.5451L44.0804 40.5439Z" fill="black" fill-opacity="0.1"/>
<path d="M27.5461 25.8514C27.5955 25.1421 27.7106 24.3777 27.8316 23.6109C28.0067 22.4989 28.2698 21.4044 28.4402 20.2924C28.5718 19.4376 28.7715 18.5921 28.8866 17.7361C28.9606 17.1865 29.0194 16.6322 29.0887 16.0815C29.138 15.6893 29.1897 15.3006 29.6056 15.0951C30.2 14.8027 30.8344 15.209 30.9014 15.8443C31.0154 16.9364 31.1657 18.0237 31.3584 19.1064C31.6016 20.4768 31.8812 21.8401 32.1115 23.2116C32.2313 23.9256 32.3394 24.6466 32.384 25.3781C32.4322 26.1684 32.3864 26.9235 32.1514 27.6762C32.0868 27.8805 32.0163 27.8887 31.8565 27.8053C31.3678 27.5517 30.8427 27.4671 30.2976 27.392C29.4905 27.2828 28.7762 27.5118 28.0701 27.8265C27.9327 27.8875 27.9127 27.8476 27.8704 27.7466C27.6249 27.1607 27.5685 26.543 27.5473 25.8502L27.5461 25.8514Z" fill="#7468E4"/>
<path d="M27.5461 25.8514C27.5955 25.1421 27.7106 24.3777 27.8316 23.6109C28.0067 22.4989 28.2698 21.4044 28.4402 20.2924C28.5718 19.4376 28.7715 18.5921 28.8866 17.7361C28.9606 17.1865 29.0194 16.6322 29.0887 16.0815C29.138 15.6893 29.1897 15.3006 29.6056 15.0951C30.2 14.8027 30.8344 15.209 30.9014 15.8443C31.0154 16.9364 31.1657 18.0237 31.3584 19.1064C31.6016 20.4768 31.8812 21.8401 32.1115 23.2116C32.2313 23.9256 32.3394 24.6466 32.384 25.3781C32.4322 26.1684 32.3864 26.9235 32.1514 27.6762C32.0868 27.8805 32.0163 27.8887 31.8565 27.8053C31.3678 27.5517 30.8427 27.4671 30.2976 27.392C29.4905 27.2828 28.7762 27.5118 28.0701 27.8265C27.9327 27.8875 27.9127 27.8476 27.8704 27.7466C27.6249 27.1607 27.5685 26.543 27.5473 25.8502L27.5461 25.8514Z" fill="black" fill-opacity="0.1"/>
<path d="M27.5461 25.8514C27.5955 25.1421 27.7106 24.3777 27.8316 23.6109C28.0067 22.4989 28.2698 21.4044 28.4402 20.2924C28.5718 19.4376 28.7715 18.5921 28.8866 17.7361C28.9606 17.1865 29.0194 16.6322 29.0887 16.0815C29.138 15.6893 29.1897 15.3006 29.6056 15.0951C30.2 14.8027 30.8344 15.209 30.9014 15.8443C31.0154 16.9364 31.1657 18.0237 31.3584 19.1064C31.6016 20.4768 31.8812 21.8401 32.1115 23.2116C32.2313 23.9256 32.3394 24.6466 32.384 25.3781C32.4322 26.1684 32.3864 26.9235 32.1514 27.6762C32.0868 27.8805 32.0163 27.8887 31.8565 27.8053C31.3678 27.5517 30.8427 27.4671 30.2976 27.392C29.4905 27.2828 28.7762 27.5118 28.0701 27.8265C27.9327 27.8875 27.9127 27.8476 27.8704 27.7466C27.6249 27.1607 27.5685 26.543 27.5473 25.8502L27.5461 25.8514Z" fill="black" fill-opacity="0.1"/>
<path d="M31.0413 44.951C30.5584 45.0179 30.072 45.0003 29.588 44.9921C28.0843 44.9651 26.6439 44.6293 25.2506 44.075C23.963 43.563 22.787 42.8597 21.7144 41.9884C21.3009 41.6525 20.9355 41.2556 20.542 40.8939C20.4174 40.78 20.4656 40.719 20.5866 40.6791C21.1082 40.5029 21.6298 40.3303 22.1538 40.16C22.3077 40.1107 22.3993 40.2293 22.4933 40.3162C22.9233 40.7119 23.3944 41.0536 23.8843 41.3707C25.1202 42.1727 26.4701 42.7035 27.908 42.9912C28.741 43.1579 29.5951 43.2319 30.448 43.1744C32.0293 43.0663 33.5542 42.7399 34.9863 42.0189C35.6453 41.6866 36.2633 41.3026 36.8683 40.8869C37.2607 40.6168 37.6026 40.6814 37.9245 40.9022C38.2241 41.1088 38.3697 41.5292 38.2217 41.9132C38.1489 42.1023 38.0055 42.2408 37.8516 42.35C36.8425 43.064 35.7851 43.6875 34.6197 44.1243C33.8267 44.4214 33.0161 44.6445 32.1879 44.8078C31.8119 44.8817 31.4254 44.9052 31.0436 44.951H31.0413Z" fill="#7468E4"/>
<path d="M31.0413 44.951C30.5584 45.0179 30.072 45.0003 29.588 44.9921C28.0843 44.9651 26.6439 44.6293 25.2506 44.075C23.963 43.563 22.787 42.8597 21.7144 41.9884C21.3009 41.6525 20.9355 41.2556 20.542 40.8939C20.4174 40.78 20.4656 40.719 20.5866 40.6791C21.1082 40.5029 21.6298 40.3303 22.1538 40.16C22.3077 40.1107 22.3993 40.2293 22.4933 40.3162C22.9233 40.7119 23.3944 41.0536 23.8843 41.3707C25.1202 42.1727 26.4701 42.7035 27.908 42.9912C28.741 43.1579 29.5951 43.2319 30.448 43.1744C32.0293 43.0663 33.5542 42.7399 34.9863 42.0189C35.6453 41.6866 36.2633 41.3026 36.8683 40.8869C37.2607 40.6168 37.6026 40.6814 37.9245 40.9022C38.2241 41.1088 38.3697 41.5292 38.2217 41.9132C38.1489 42.1023 38.0055 42.2408 37.8516 42.35C36.8425 43.064 35.7851 43.6875 34.6197 44.1243C33.8267 44.4214 33.0161 44.6445 32.1879 44.8078C31.8119 44.8817 31.4254 44.9052 31.0436 44.951H31.0413Z" fill="black" fill-opacity="0.1"/>
<path d="M31.0413 44.951C30.5584 45.0179 30.072 45.0003 29.588 44.9921C28.0843 44.9651 26.6439 44.6293 25.2506 44.075C23.963 43.563 22.787 42.8597 21.7144 41.9884C21.3009 41.6525 20.9355 41.2556 20.542 40.8939C20.4174 40.78 20.4656 40.719 20.5866 40.6791C21.1082 40.5029 21.6298 40.3303 22.1538 40.16C22.3077 40.1107 22.3993 40.2293 22.4933 40.3162C22.9233 40.7119 23.3944 41.0536 23.8843 41.3707C25.1202 42.1727 26.4701 42.7035 27.908 42.9912C28.741 43.1579 29.5951 43.2319 30.448 43.1744C32.0293 43.0663 33.5542 42.7399 34.9863 42.0189C35.6453 41.6866 36.2633 41.3026 36.8683 40.8869C37.2607 40.6168 37.6026 40.6814 37.9245 40.9022C38.2241 41.1088 38.3697 41.5292 38.2217 41.9132C38.1489 42.1023 38.0055 42.2408 37.8516 42.35C36.8425 43.064 35.7851 43.6875 34.6197 44.1243C33.8267 44.4214 33.0161 44.6445 32.1879 44.8078C31.8119 44.8817 31.4254 44.9052 31.0436 44.951H31.0413Z" fill="black" fill-opacity="0.1"/>
<path d="M16.8812 33.0264C16.7767 32.5907 16.8354 32.0647 16.8236 31.5409C16.7966 30.3409 17.0198 29.1772 17.3558 28.0346C17.8622 26.3143 18.701 24.7596 19.8394 23.381C20.8345 22.1762 22.0104 21.164 23.3674 20.3784C24.4047 19.7772 25.5008 19.3122 26.6603 19.0022C26.8565 18.9494 26.9458 18.9329 26.88 19.2018C26.7661 19.6621 26.6979 20.1342 26.6181 20.6027C26.5899 20.7683 26.5276 20.8916 26.3584 20.9444C25.1272 21.3308 24.0158 21.9531 23.0055 22.7399C21.8953 23.6029 20.9696 24.641 20.2435 25.8528C19.6502 26.8451 19.212 27.8972 18.916 29.0163C18.6011 30.2046 18.5365 31.413 18.5917 32.6283C18.6058 32.943 18.7045 33.2601 18.58 33.5642C18.412 33.974 18.0173 34.1725 17.5955 34.0844C17.162 33.994 16.9106 33.6147 16.8812 33.199C16.8789 33.1696 16.8812 33.1403 16.8812 33.0276V33.0264Z" fill="#7468E4"/>
<path d="M16.8812 33.0264C16.7767 32.5907 16.8354 32.0647 16.8236 31.5409C16.7966 30.3409 17.0198 29.1772 17.3558 28.0346C17.8622 26.3143 18.701 24.7596 19.8394 23.381C20.8345 22.1762 22.0104 21.164 23.3674 20.3784C24.4047 19.7772 25.5008 19.3122 26.6603 19.0022C26.8565 18.9494 26.9458 18.9329 26.88 19.2018C26.7661 19.6621 26.6979 20.1342 26.6181 20.6027C26.5899 20.7683 26.5276 20.8916 26.3584 20.9444C25.1272 21.3308 24.0158 21.9531 23.0055 22.7399C21.8953 23.6029 20.9696 24.641 20.2435 25.8528C19.6502 26.8451 19.212 27.8972 18.916 29.0163C18.6011 30.2046 18.5365 31.413 18.5917 32.6283C18.6058 32.943 18.7045 33.2601 18.58 33.5642C18.412 33.974 18.0173 34.1725 17.5955 34.0844C17.162 33.994 16.9106 33.6147 16.8812 33.199C16.8789 33.1696 16.8812 33.1403 16.8812 33.0276V33.0264Z" fill="black" fill-opacity="0.1"/>
<path d="M16.8812 33.0264C16.7767 32.5907 16.8354 32.0647 16.8236 31.5409C16.7966 30.3409 17.0198 29.1772 17.3558 28.0346C17.8622 26.3143 18.701 24.7596 19.8394 23.381C20.8345 22.1762 22.0104 21.164 23.3674 20.3784C24.4047 19.7772 25.5008 19.3122 26.6603 19.0022C26.8565 18.9494 26.9458 18.9329 26.88 19.2018C26.7661 19.6621 26.6979 20.1342 26.6181 20.6027C26.5899 20.7683 26.5276 20.8916 26.3584 20.9444C25.1272 21.3308 24.0158 21.9531 23.0055 22.7399C21.8953 23.6029 20.9696 24.641 20.2435 25.8528C19.6502 26.8451 19.212 27.8972 18.916 29.0163C18.6011 30.2046 18.5365 31.413 18.5917 32.6283C18.6058 32.943 18.7045 33.2601 18.58 33.5642C18.412 33.974 18.0173 34.1725 17.5955 34.0844C17.162 33.994 16.9106 33.6147 16.8812 33.199C16.8789 33.1696 16.8812 33.1403 16.8812 33.0276V33.0264Z" fill="black" fill-opacity="0.1"/>
<path d="M43.1078 30.1974C43.2523 30.6588 43.1348 31.1368 43.1947 31.6076C43.2511 32.0597 43.1818 32.5353 43.1407 32.9968C43.0784 33.6967 42.9316 34.3859 42.7553 35.0682C42.706 35.2608 42.6684 35.3089 42.5016 35.1715C42.1303 34.8662 41.7556 34.5644 41.3749 34.272C41.2328 34.1628 41.1917 34.0313 41.2246 33.8681C41.3397 33.3021 41.3749 32.7302 41.4055 32.1525C41.5006 30.3077 41.1329 28.5569 40.3611 26.8942C39.9217 25.9477 39.3449 25.0811 38.66 24.2814C37.7119 23.1753 36.5723 22.3251 35.3129 21.6206C35.0486 21.4726 34.7619 21.3634 34.4917 21.226C34.0065 20.9806 33.8385 20.525 34.0547 20.0611C34.2626 19.6138 34.7337 19.42 35.2037 19.6267C36.2774 20.0999 37.2854 20.687 38.2077 21.4209C38.9161 21.9846 39.5599 22.614 40.1402 23.3045C40.9873 24.3131 41.6628 25.4275 42.1738 26.6476C42.5286 27.4954 42.7765 28.3702 42.968 29.265C43.0338 29.5727 43.0631 29.8874 43.109 30.1985L43.1078 30.1974Z" fill="#7468E4"/>
<path d="M43.1078 30.1974C43.2523 30.6588 43.1348 31.1368 43.1947 31.6076C43.2511 32.0597 43.1818 32.5353 43.1407 32.9968C43.0784 33.6967 42.9316 34.3859 42.7553 35.0682C42.706 35.2608 42.6684 35.3089 42.5016 35.1715C42.1303 34.8662 41.7556 34.5644 41.3749 34.272C41.2328 34.1628 41.1917 34.0313 41.2246 33.8681C41.3397 33.3021 41.3749 32.7302 41.4055 32.1525C41.5006 30.3077 41.1329 28.5569 40.3611 26.8942C39.9217 25.9477 39.3449 25.0811 38.66 24.2814C37.7119 23.1753 36.5723 22.3251 35.3129 21.6206C35.0486 21.4726 34.7619 21.3634 34.4917 21.226C34.0065 20.9806 33.8385 20.525 34.0547 20.0611C34.2626 19.6138 34.7337 19.42 35.2037 19.6267C36.2774 20.0999 37.2854 20.687 38.2077 21.4209C38.9161 21.9846 39.5599 22.614 40.1402 23.3045C40.9873 24.3131 41.6628 25.4275 42.1738 26.6476C42.5286 27.4954 42.7765 28.3702 42.968 29.265C43.0338 29.5727 43.0631 29.8874 43.109 30.1985L43.1078 30.1974Z" fill="black" fill-opacity="0.1"/>
<path d="M43.1078 30.1974C43.2523 30.6588 43.1348 31.1368 43.1947 31.6076C43.2511 32.0597 43.1818 32.5353 43.1407 32.9968C43.0784 33.6967 42.9316 34.3859 42.7553 35.0682C42.706 35.2608 42.6684 35.3089 42.5016 35.1715C42.1303 34.8662 41.7556 34.5644 41.3749 34.272C41.2328 34.1628 41.1917 34.0313 41.2246 33.8681C41.3397 33.3021 41.3749 32.7302 41.4055 32.1525C41.5006 30.3077 41.1329 28.5569 40.3611 26.8942C39.9217 25.9477 39.3449 25.0811 38.66 24.2814C37.7119 23.1753 36.5723 22.3251 35.3129 21.6206C35.0486 21.4726 34.7619 21.3634 34.4917 21.226C34.0065 20.9806 33.8385 20.525 34.0547 20.0611C34.2626 19.6138 34.7337 19.42 35.2037 19.6267C36.2774 20.0999 37.2854 20.687 38.2077 21.4209C38.9161 21.9846 39.5599 22.614 40.1402 23.3045C40.9873 24.3131 41.6628 25.4275 42.1738 26.6476C42.5286 27.4954 42.7765 28.3702 42.968 29.265C43.0338 29.5727 43.0631 29.8874 43.109 30.1985L43.1078 30.1974Z" fill="black" fill-opacity="0.1"/>
<path d="M27.3793 31.7393C27.3629 30.322 28.5342 29.1149 29.9252 29.1231C31.5393 29.1325 32.6155 30.1811 32.6366 31.7417C32.6566 33.1825 31.5828 34.4202 29.8206 34.3791C28.6058 34.3509 27.3394 33.1896 27.3793 31.7393Z" fill="#7468E4"/>
<path d="M27.3793 31.7393C27.3629 30.322 28.5342 29.1149 29.9252 29.1231C31.5393 29.1325 32.6155 30.1811 32.6366 31.7417C32.6566 33.1825 31.5828 34.4202 29.8206 34.3791C28.6058 34.3509 27.3394 33.1896 27.3793 31.7393Z" fill="black" fill-opacity="0.1"/>
<path d="M27.3793 31.7393C27.3629 30.322 28.5342 29.1149 29.9252 29.1231C31.5393 29.1325 32.6155 30.1811 32.6366 31.7417C32.6566 33.1825 31.5828 34.4202 29.8206 34.3791C28.6058 34.3509 27.3394 33.1896 27.3793 31.7393Z" fill="black" fill-opacity="0.1"/>
<path d="M24.2319 39.452C24.8581 39.2265 25.4819 39.0069 26.0776 38.7192C26.2127 38.6546 26.3196 38.7004 26.4206 38.7521C27.129 39.1103 27.8668 39.3862 28.6528 39.5048C29.2366 39.5929 29.817 39.6492 30.4197 39.6305C31.1762 39.6058 31.88 39.3169 32.6283 39.3111C33.0653 39.3075 33.2968 39.5107 33.4378 40.0039C33.5235 40.3057 33.352 40.7178 33.063 40.8881C32.6859 41.11 32.2524 41.1511 31.8377 41.2392C31.0223 41.413 30.1906 41.4764 29.3623 41.4118C28.2968 41.3284 27.2618 41.0901 26.2738 40.6615C25.6112 40.3738 24.9897 40.0227 24.3988 39.6117C24.3341 39.5659 24.2766 39.5224 24.2319 39.4531V39.452Z" fill="#7468E4"/>
<path d="M24.2319 39.452C24.8581 39.2265 25.4819 39.0069 26.0776 38.7192C26.2127 38.6546 26.3196 38.7004 26.4206 38.7521C27.129 39.1103 27.8668 39.3862 28.6528 39.5048C29.2366 39.5929 29.817 39.6492 30.4197 39.6305C31.1762 39.6058 31.88 39.3169 32.6283 39.3111C33.0653 39.3075 33.2968 39.5107 33.4378 40.0039C33.5235 40.3057 33.352 40.7178 33.063 40.8881C32.6859 41.11 32.2524 41.1511 31.8377 41.2392C31.0223 41.413 30.1906 41.4764 29.3623 41.4118C28.2968 41.3284 27.2618 41.0901 26.2738 40.6615C25.6112 40.3738 24.9897 40.0227 24.3988 39.6117C24.3341 39.5659 24.2766 39.5224 24.2319 39.4531V39.452Z" fill="black" fill-opacity="0.1"/>
<path d="M24.2319 39.452C24.8581 39.2265 25.4819 39.0069 26.0776 38.7192C26.2127 38.6546 26.3196 38.7004 26.4206 38.7521C27.129 39.1103 27.8668 39.3862 28.6528 39.5048C29.2366 39.5929 29.817 39.6492 30.4197 39.6305C31.1762 39.6058 31.88 39.3169 32.6283 39.3111C33.0653 39.3075 33.2968 39.5107 33.4378 40.0039C33.5235 40.3057 33.352 40.7178 33.063 40.8881C32.6859 41.11 32.2524 41.1511 31.8377 41.2392C31.0223 41.413 30.1906 41.4764 29.3623 41.4118C28.2968 41.3284 27.2618 41.0901 26.2738 40.6615C25.6112 40.3738 24.9897 40.0227 24.3988 39.6117C24.3341 39.5659 24.2766 39.5224 24.2319 39.4531V39.452Z" fill="black" fill-opacity="0.1"/>
<path d="M39.6468 32.8325C39.1123 32.4392 38.647 32.0881 38.1724 31.751C37.9692 31.6066 37.8858 31.4504 37.8705 31.1839C37.7894 29.7536 37.3348 28.4408 36.523 27.2571C36.2058 26.7945 35.8392 26.3718 35.4339 25.9819C34.9769 25.5416 35.0286 24.9039 35.5444 24.5528C35.7875 24.3873 36.429 24.4648 36.6487 24.7067C37.1409 25.2468 37.6578 25.7635 38.0584 26.3835C38.8326 27.5848 39.339 28.8847 39.581 30.2926C39.6609 30.76 39.6174 31.232 39.6867 31.7005C39.7396 32.0587 39.5986 32.4204 39.648 32.8325H39.6468Z" fill="#7468E4"/>
<path d="M39.6468 32.8325C39.1123 32.4392 38.647 32.0881 38.1724 31.751C37.9692 31.6066 37.8858 31.4504 37.8705 31.1839C37.7894 29.7536 37.3348 28.4408 36.523 27.2571C36.2058 26.7945 35.8392 26.3718 35.4339 25.9819C34.9769 25.5416 35.0286 24.9039 35.5444 24.5528C35.7875 24.3873 36.429 24.4648 36.6487 24.7067C37.1409 25.2468 37.6578 25.7635 38.0584 26.3835C38.8326 27.5848 39.339 28.8847 39.581 30.2926C39.6609 30.76 39.6174 31.232 39.6867 31.7005C39.7396 32.0587 39.5986 32.4204 39.648 32.8325H39.6468Z" fill="black" fill-opacity="0.1"/>
<path d="M39.6468 32.8325C39.1123 32.4392 38.647 32.0881 38.1724 31.751C37.9692 31.6066 37.8858 31.4504 37.8705 31.1839C37.7894 29.7536 37.3348 28.4408 36.523 27.2571C36.2058 26.7945 35.8392 26.3718 35.4339 25.9819C34.9769 25.5416 35.0286 24.9039 35.5444 24.5528C35.7875 24.3873 36.429 24.4648 36.6487 24.7067C37.1409 25.2468 37.6578 25.7635 38.0584 26.3835C38.8326 27.5848 39.339 28.8847 39.581 30.2926C39.6609 30.76 39.6174 31.232 39.6867 31.7005C39.7396 32.0587 39.5986 32.4204 39.648 32.8325H39.6468Z" fill="black" fill-opacity="0.1"/>
<path d="M20.569 29.735C20.6136 29.1949 20.8122 28.6947 21.0049 28.1991C21.4959 26.9438 22.2349 25.8377 23.1912 24.8947C23.9748 24.1233 24.8688 23.4856 25.8792 23.0288C25.9555 22.9948 26.0448 22.9079 26.12 22.9678C26.1917 23.0253 26.1247 23.1228 26.1106 23.2062C26.0366 23.6676 25.9696 24.1315 25.9226 24.5977C25.8944 24.8748 25.8087 25.0744 25.5596 25.2423C24.0711 26.2451 23.0643 27.6237 22.4687 29.3076C22.3864 29.5401 22.3477 29.7867 22.2725 30.0216C22.1374 30.4408 21.6862 30.7109 21.248 30.6275C20.9496 30.5711 20.5279 30.2365 20.5678 29.7339L20.569 29.735Z" fill="#7468E4"/>
<path d="M20.569 29.735C20.6136 29.1949 20.8122 28.6947 21.0049 28.1991C21.4959 26.9438 22.2349 25.8377 23.1912 24.8947C23.9748 24.1233 24.8688 23.4856 25.8792 23.0288C25.9555 22.9948 26.0448 22.9079 26.12 22.9678C26.1917 23.0253 26.1247 23.1228 26.1106 23.2062C26.0366 23.6676 25.9696 24.1315 25.9226 24.5977C25.8944 24.8748 25.8087 25.0744 25.5596 25.2423C24.0711 26.2451 23.0643 27.6237 22.4687 29.3076C22.3864 29.5401 22.3477 29.7867 22.2725 30.0216C22.1374 30.4408 21.6862 30.7109 21.248 30.6275C20.9496 30.5711 20.5279 30.2365 20.5678 29.7339L20.569 29.735Z" fill="black" fill-opacity="0.1"/>
<path d="M20.569 29.735C20.6136 29.1949 20.8122 28.6947 21.0049 28.1991C21.4959 26.9438 22.2349 25.8377 23.1912 24.8947C23.9748 24.1233 24.8688 23.4856 25.8792 23.0288C25.9555 22.9948 26.0448 22.9079 26.12 22.9678C26.1917 23.0253 26.1247 23.1228 26.1106 23.2062C26.0366 23.6676 25.9696 24.1315 25.9226 24.5977C25.8944 24.8748 25.8087 25.0744 25.5596 25.2423C24.0711 26.2451 23.0643 27.6237 22.4687 29.3076C22.3864 29.5401 22.3477 29.7867 22.2725 30.0216C22.1374 30.4408 21.6862 30.7109 21.248 30.6275C20.9496 30.5711 20.5279 30.2365 20.5678 29.7339L20.569 29.735Z" fill="black" fill-opacity="0.1"/>
</g>
<defs>
<clipPath id="clip0_20_874">
<rect width="30" height="30" fill="white" transform="translate(15.0015 15)"/>
</clipPath>
</defs>
</svg>
