<svg width="26" height="34" viewBox="0 0 26 34" fill="none" xmlns="http://www.w3.org/2000/svg">
<g clip-path="url(#clip0_29_418)">
<path d="M25.7368 22.7977C25.8516 22.2187 25.846 21.6396 25.7368 21.0606C25.6779 20.5841 25.7018 20.1034 25.6723 19.6241C25.6093 18.5934 25.4931 17.5697 25.3824 16.5446C25.2773 15.5694 25.1191 14.6025 24.9244 13.6439C24.6708 12.3957 24.3753 11.1545 23.9943 9.93412C23.9117 9.66815 23.836 9.59473 23.5713 9.59473C16.5313 9.60027 9.48993 9.60166 2.44996 9.59057C2.139 9.59057 2.03395 9.69862 1.96671 9.96875C1.72999 10.9274 1.46526 11.8776 1.23414 12.8363C0.984813 13.871 0.788714 14.9183 0.648643 15.9725C0.554795 16.679 0.477756 17.3869 0.417525 18.0989C0.334883 19.0616 0.259245 20.0244 0.227029 20.9913C0.199014 21.5939 0.196213 22.1951 0.227029 22.7977C0.231231 23.151 0.263447 23.5028 0.277454 23.8533C0.322277 24.9657 0.442738 26.0697 0.568802 27.1738C0.678058 28.1365 0.846143 29.0882 1.02683 30.0371C1.05905 30.2047 1.03804 30.3239 0.968005 30.4472C0.745292 30.8378 0.537987 31.2409 0.274653 31.6025C-0.407493 32.5403 0.22983 33.9644 1.47366 33.945C1.58712 34.0322 1.72019 33.9921 1.84485 33.9921C9.28683 33.9948 16.7274 33.9948 24.1694 33.9921C24.2926 33.9921 24.4257 34.0322 24.5406 33.945C25.7018 33.8799 26.3881 32.7093 25.7606 31.6468C25.5379 31.27 25.3334 30.8807 25.077 30.5289C24.9426 30.3447 24.9258 30.1632 24.9622 29.9817C25.1387 29.0868 25.2647 28.185 25.3866 27.2818C25.4959 26.4742 25.5715 25.6638 25.6471 24.8548C25.7102 24.1719 25.7088 23.4834 25.7354 22.7977H25.7368ZM12.9567 8.13604C16.6364 8.13604 20.3146 8.13604 23.9943 8.13604C24.5868 8.13604 24.8585 7.93933 24.9272 7.38384C24.9734 7.00982 24.9426 6.62472 24.9426 6.24515C24.9426 5.46386 24.654 5.17573 23.8724 5.17573C16.6195 5.17573 9.36527 5.17573 2.11239 5.17573C2.00733 5.17573 1.90088 5.16741 1.79863 5.18127C1.33079 5.2436 1.06746 5.50265 1.07586 5.9958C1.08286 6.43355 1.07586 6.87129 1.07726 7.30904C1.07726 7.85622 1.36301 8.13604 1.92049 8.13604C5.60016 8.13604 9.27842 8.13604 12.9581 8.13604H12.9567ZM6.07079 3.68933H19.8902C18.4321 2.7238 17.0202 1.76381 15.583 0.841225C13.9624 -0.199111 12.2605 -0.303006 10.6049 0.695771C9.07672 1.61836 7.61998 2.6587 6.07079 3.68933Z" fill="#F7FAFC"/>
<path d="M1.47781 33.9442C0.233981 33.9636 -0.403343 32.541 0.278803 31.6017C0.542137 31.2388 0.749442 30.8357 0.972155 30.4464C1.04219 30.3245 1.0618 30.204 1.03099 30.0364C0.850294 29.0875 0.682208 28.1358 0.572953 27.173C0.446889 26.0676 0.326427 24.9649 0.281605 23.8526C0.267598 23.5021 0.235381 23.1502 0.231179 22.797C0.290009 22.1944 0.31102 21.5932 0.231179 20.9906C0.264796 20.0251 0.340435 19.0623 0.421676 18.0982C0.481906 17.3875 0.558946 16.6783 0.652793 15.9718C0.792864 14.9176 0.988964 13.8703 1.23829 12.8355C1.46941 11.8769 1.73414 10.9252 1.97086 9.96802C2.0367 9.69928 2.14315 9.58984 2.45411 9.58984C9.49408 9.60093 16.5355 9.59954 23.5754 9.594C23.8402 9.594 23.9144 9.6688 23.9984 9.93339C24.3794 11.1538 24.6764 12.3936 24.9285 13.6431C25.1232 14.6004 25.2801 15.5673 25.3866 16.5439C25.4972 17.569 25.6149 18.5927 25.6765 19.6233C25.7059 20.1013 25.6821 20.5833 25.7409 21.0599C25.7409 21.6389 25.7409 22.2179 25.7409 22.797C25.7143 23.4827 25.7157 24.1712 25.6527 24.8541C25.577 25.6631 25.5014 26.4735 25.3922 27.2811C25.2703 28.1843 25.1442 29.0861 24.9677 29.981C24.9327 30.1611 24.9495 30.3439 25.0826 30.5282C25.3389 30.88 25.5434 31.2707 25.7661 31.6461C26.3937 32.7086 25.7087 33.8791 24.5461 33.9442C24.4425 33.9373 24.3388 33.9248 24.2338 33.9248C16.7526 33.9248 9.27277 33.9248 1.79157 33.9248C1.68792 33.9248 1.58427 33.9373 1.47921 33.9442H1.47781ZM12.2339 26.9472C12.2409 27.8449 12.2465 28.7425 12.2535 29.6402C12.2857 29.7109 12.3165 29.7815 12.3515 29.8494C12.5196 30.1735 12.797 30.3176 13.1275 30.258C13.4259 30.204 13.6878 29.8992 13.7144 29.5751C13.8307 29.4878 13.7733 29.3618 13.7747 29.2565C13.7831 28.4863 13.7831 27.7161 13.7859 26.9472C14.482 26.9514 15.1712 26.9348 15.8365 26.6757C17.1364 26.1715 18.1729 24.8666 18.1827 23.4217C18.2948 22.8178 18.2821 22.2124 18.1855 21.6084C18.0987 21.2413 17.8381 21.0779 17.4501 21.0377C17.5468 20.8618 17.6756 20.7454 17.7583 20.5972C18.1379 19.9239 18.1939 19.1787 18.2331 18.4403C18.2723 17.6826 18.2331 16.9207 18.2261 16.1616C18.2415 16.0383 18.2933 15.9108 18.1827 15.8028C18.1533 15.4883 17.9922 15.2514 17.6812 15.1946C17.1854 15.1018 16.9571 15.232 16.7736 15.6088C16.6503 15.8623 16.7372 16.1269 16.7105 16.3846C16.7021 16.4705 16.7414 16.5868 16.5873 16.5702C16.3085 16.5397 16.041 16.6145 15.7679 16.6367C15.6166 16.6492 15.5283 16.6672 15.5788 16.4303C15.7567 15.5894 15.6712 14.7735 15.244 14.0033C14.7888 13.1832 14.0478 12.6167 13.4077 11.9628C13.2256 11.7758 12.6751 11.8284 12.479 12.0182C11.8431 12.6305 11.1959 13.2345 10.7505 14.0075C10.4578 14.5145 10.3191 15.0755 10.2967 15.649C10.2841 15.9718 10.3947 16.3001 10.4508 16.6409C10.1804 16.6409 9.9213 16.6173 9.66917 16.6464C9.30639 16.6893 9.19713 16.5522 9.22795 16.2045C9.24896 15.9621 9.29938 15.6989 9.1397 15.4731C8.96321 15.2237 8.57662 15.1087 8.23905 15.2016C7.97151 15.275 7.76981 15.5742 7.76981 15.9164C7.76981 16.814 7.78101 17.7131 7.77261 18.6107C7.76981 18.9861 7.81323 19.3504 7.88747 19.7189C7.98552 20.2024 8.24325 20.6041 8.49958 21.0432C8.11578 21.0709 7.88747 21.2483 7.83004 21.607C7.70117 22.2318 7.79082 22.8607 7.78241 23.4882C7.71518 23.6226 7.82584 23.7265 7.84685 23.8456C8.05135 25.0577 8.72089 25.9402 9.80644 26.5303C10.5712 26.9459 11.3976 26.9611 12.2325 26.9472H12.2339Z" fill="#60AB41"/>
<path d="M12.9566 8.13564C9.27698 8.13564 5.59871 8.13564 1.91904 8.13564C1.36156 8.13564 1.07721 7.85582 1.07581 7.30864C1.07581 6.87089 1.08142 6.43315 1.07441 5.9954C1.06601 5.50225 1.33074 5.2432 1.79718 5.18087C1.90083 5.16701 2.00589 5.17532 2.11094 5.17532C9.36382 5.17532 16.6181 5.17532 23.871 5.17532C24.6526 5.17532 24.9425 5.46346 24.9411 6.24475C24.9411 6.62431 24.972 7.00942 24.9257 7.38344C24.8571 7.93893 24.584 8.13564 23.9929 8.13564C20.3132 8.13564 16.6349 8.13564 12.9552 8.13564H12.9566Z" fill="#60AB41"/>
<path d="M6.0708 3.68933C7.61999 2.6587 9.07673 1.61836 10.6049 0.695772C12.2605 -0.303006 13.9624 -0.199111 15.583 0.841225C17.0202 1.76381 18.4335 2.7238 19.8902 3.68933H6.0708Z" fill="#60AB41"/>
<path d="M1.47778 33.9442C1.58144 33.9373 1.68509 33.9248 1.79014 33.9248C9.27134 33.9248 16.7511 33.9248 24.2323 33.9248C24.336 33.9248 24.4396 33.9373 24.5447 33.9442C24.4312 34.0315 24.2982 33.9913 24.1735 33.9913C16.7315 33.9941 9.29095 33.9941 1.84897 33.9913C1.72571 33.9913 1.59264 34.0315 1.47778 33.9442Z" fill="#A5A7A7"/>
<path d="M0.229645 20.9912C0.309486 21.5938 0.288475 22.195 0.229645 22.7976C0.197429 22.195 0.201631 21.5938 0.229645 20.9912Z" fill="#A5A7A7"/>
<path d="M25.7366 22.7977C25.7366 22.2186 25.7366 21.6396 25.7366 21.0605C25.8444 21.6396 25.8514 22.2186 25.7366 22.7977Z" fill="#A5A7A7"/>
<path d="M18.2302 16.1614C18.2358 16.922 18.2764 17.6825 18.2372 18.4402C18.1979 19.1772 18.1419 19.9224 17.7623 20.5971C17.6783 20.7453 17.5508 20.8603 17.4542 21.0376C17.8408 21.0778 18.1027 21.2412 18.1895 21.6083C18.1895 22.2123 18.1881 22.8177 18.1867 23.4216C18.1755 24.8665 17.139 26.1728 15.8405 26.6756C15.1752 26.9333 14.4861 26.9513 13.7899 26.9471C13.675 26.9984 13.7129 27.1023 13.7129 27.1854C13.7129 27.9819 13.7157 28.7785 13.7171 29.5764C13.6904 29.9005 13.4285 30.2039 13.1302 30.2593C12.7982 30.3203 12.5223 30.1748 12.3542 29.8507C12.3192 29.7828 12.2883 29.7107 12.2561 29.6415C12.3093 29.6027 12.3149 29.5473 12.3149 29.4891C12.3149 28.6995 12.3149 27.9099 12.3149 27.1189C12.3149 27.0524 12.3234 26.9776 12.2379 26.9471C11.4031 26.961 10.5753 26.9458 9.81188 26.5302C8.72633 25.94 8.05819 25.059 7.85228 23.8455C7.83267 23.7264 7.72062 23.6211 7.78785 23.4881C7.84388 23.4535 7.84808 23.3981 7.84808 23.3399C7.84388 22.7622 7.83968 22.1846 7.83547 21.6069C7.8943 21.2481 8.12122 21.0708 8.50502 21.0431C8.24868 20.6054 7.99095 20.2037 7.8929 19.7188C7.81867 19.3503 7.77384 18.986 7.77805 18.6106C7.78645 17.7129 7.77524 16.8139 7.77524 15.9163C7.77524 15.5741 7.97695 15.2749 8.24448 15.2015C8.58065 15.1086 8.96725 15.2236 9.14514 15.473C9.30482 15.6988 9.2558 15.962 9.23338 16.2044C9.20257 16.5521 9.31182 16.6892 9.67461 16.6463C9.92674 16.6172 10.1845 16.6407 10.4562 16.6407C10.3988 16.3014 10.2881 15.9731 10.3021 15.6489C10.3245 15.0754 10.4632 14.5144 10.756 14.0074C11.2014 13.2344 11.8485 12.629 12.4844 12.0181C12.6805 11.8297 13.231 11.7757 13.4131 11.9627C14.0532 12.6179 14.7942 13.1831 15.2494 14.0032C15.6767 14.772 15.7621 15.5893 15.5842 16.4302C15.5338 16.6671 15.6234 16.6477 15.7733 16.6366C16.0464 16.6144 16.3154 16.5396 16.5927 16.5701C16.7482 16.5867 16.7076 16.4704 16.716 16.3845C16.7426 16.1268 16.6572 15.8636 16.779 15.6087C16.9611 15.2319 17.1894 15.1017 17.6867 15.1945C17.9976 15.2527 18.1587 15.4882 18.1881 15.8027C18.1923 15.9232 18.1475 16.0506 18.2316 16.1614H18.2302ZM16.7132 18.7062C16.7132 18.5566 16.7132 18.407 16.7132 18.2574C16.7132 18.1784 16.73 18.087 16.6025 18.0911C16.2453 18.1064 15.8812 18.0399 15.5296 18.123C14.4202 18.3834 13.8543 19.1813 13.7129 20.2203C13.5994 21.0528 13.7913 21.2024 14.6569 21.003C14.6793 20.9974 14.7018 20.996 14.7256 20.996C15.8363 20.9725 16.835 19.795 16.7132 18.7076V18.7062ZM16.7132 23.1293C16.7132 22.9797 16.7132 22.8301 16.7132 22.6805C16.7132 22.6002 16.7272 22.5101 16.5997 22.5171C16.2425 22.5337 15.8798 22.4672 15.5268 22.5489C14.4174 22.808 13.8501 23.6128 13.7129 24.6476C13.6022 25.4829 13.7857 25.627 14.6583 25.4261C14.6808 25.4206 14.7046 25.4206 14.727 25.4192C15.8321 25.3929 16.835 24.2237 16.7132 23.128V23.1293ZM11.8233 15.6821C11.8023 16.3277 12.074 16.8721 12.5587 17.3348C13.0265 17.7808 13.0167 17.7878 13.4747 17.3223C14.1443 16.6435 14.3026 15.8373 14.056 14.9466C13.909 14.4174 13.4719 14.0905 13.1021 13.722C13.0237 13.643 12.9411 13.6403 12.8598 13.7151C12.2869 14.2429 11.8023 14.8164 11.8247 15.6821H11.8233ZM9.81048 18.0911C9.74044 18.0911 9.66761 18.0759 9.60177 18.0939C9.47851 18.1271 9.26 17.9817 9.24319 18.2158C9.18436 19.0428 9.32863 19.8158 9.95755 20.4267C10.5725 21.0251 11.3373 21.0791 12.1371 20.9946C12.2351 20.9849 12.2421 20.9282 12.2421 20.8547C12.2351 20.4364 12.2813 20.0153 12.1413 19.6052C11.8555 18.7657 11.1075 18.0482 9.81048 18.0897V18.0911ZM12.2421 24.8831C12.2659 24.0325 11.9662 23.3413 11.2322 22.862C10.6495 22.481 9.99257 22.5074 9.33844 22.5171C9.2656 22.5171 9.24179 22.5572 9.23899 22.6237C9.19557 23.4119 9.29782 24.1697 9.87771 24.7626C10.3792 25.2737 10.9871 25.5231 11.7393 25.4303C12.2365 25.3693 12.2421 25.4178 12.2421 24.9163C12.2421 24.9053 12.2421 24.8928 12.2421 24.8817V24.8831Z" fill="#DFEED9"/>
<path d="M12.2324 26.9473C12.3178 26.9777 12.3094 27.0525 12.3094 27.119C12.3094 27.9086 12.3094 28.6982 12.3094 29.4892C12.3094 29.5474 12.3038 29.6028 12.2506 29.6416C12.2436 28.744 12.238 27.8463 12.231 26.9487L12.2324 26.9473Z" fill="#A5A7A7"/>
<path d="M13.7143 29.5755C13.7115 28.779 13.7087 27.9825 13.7101 27.1846C13.7101 27.1014 13.6722 26.9975 13.7871 26.9463C13.7843 27.7165 13.7843 28.4867 13.7759 29.2555C13.7759 29.3622 13.8319 29.4869 13.7157 29.5741L13.7143 29.5755Z" fill="#A5A7A7"/>
<path d="M7.83143 21.6074C7.83563 22.1851 7.83983 22.7627 7.84404 23.3404C7.84404 23.3986 7.84124 23.454 7.78381 23.4886C7.79221 22.8611 7.70256 22.2322 7.83143 21.6074Z" fill="#A5A7A7"/>
<path d="M18.1841 23.4207C18.1841 22.8168 18.1855 22.2114 18.1869 21.6074C18.2821 22.2128 18.2961 22.8168 18.1841 23.4207Z" fill="#A5A7A7"/>
<path d="M18.2302 16.1615C18.1461 16.0507 18.1895 15.9233 18.1867 15.8027C18.2988 15.9108 18.2456 16.0382 18.2302 16.1615Z" fill="#A5A7A7"/>
<path d="M16.7118 18.7064C16.8337 19.7939 15.8335 20.9713 14.7242 20.9949C14.7018 20.9949 14.678 20.9977 14.6555 21.0018C13.7899 21.2027 13.598 21.0531 13.7115 20.2191C13.8529 19.1802 14.4174 18.3823 15.5282 18.1218C15.8812 18.0387 16.244 18.1052 16.6011 18.09C16.7286 18.0844 16.7118 18.1772 16.7118 18.2562C16.7118 18.4058 16.7118 18.5554 16.7118 18.705V18.7064Z" fill="#60AB41"/>
<path d="M16.7119 23.13C16.8338 24.2257 15.8309 25.3949 14.7257 25.4212C14.7033 25.4212 14.6795 25.4226 14.6571 25.4281C13.7844 25.6276 13.5996 25.4849 13.7116 24.6496C13.8489 23.6148 14.4162 22.81 15.5255 22.5509C15.8785 22.4692 16.2413 22.5343 16.5985 22.5191C16.7245 22.5135 16.7119 22.6036 16.7119 22.6825C16.7119 22.8321 16.7119 22.9817 16.7119 23.1314V23.13Z" fill="#60AB41"/>
<path d="M11.822 15.6829C11.7982 14.8158 12.2842 14.2437 12.8571 13.7159C12.9383 13.6411 13.021 13.6452 13.0994 13.7228C13.4692 14.0913 13.9062 14.4182 14.0533 14.9474C14.2998 15.8381 14.1416 16.6443 13.472 17.3231C13.014 17.7872 13.0238 17.7816 12.5559 17.3356C12.0727 16.8729 11.801 16.3299 11.8206 15.6829H11.822Z" fill="#60AB41"/>
<path d="M9.80913 18.0915C11.1062 18.0486 11.8542 18.7661 12.1399 19.607C12.28 20.017 12.2324 20.4382 12.2408 20.8565C12.2408 20.9299 12.2338 20.9853 12.1357 20.9964C11.3359 21.0795 10.5725 21.0269 9.9562 20.4285C9.32728 19.8176 9.18441 19.0446 9.24184 18.2176C9.25865 17.9835 9.47716 18.1289 9.60042 18.0957C9.66485 18.0777 9.73909 18.0929 9.80913 18.0929V18.0915Z" fill="#60AB41"/>
<path d="M12.2421 24.8837C12.2421 24.8948 12.2421 24.9073 12.2421 24.9184C12.2421 25.4198 12.2365 25.3713 11.7392 25.4323C10.9857 25.5237 10.3777 25.2758 9.8777 24.7646C9.2978 24.1717 9.19415 23.4153 9.23897 22.6257C9.24317 22.5592 9.26699 22.5191 9.33842 22.5191C9.99255 22.5094 10.6495 22.4831 11.2322 22.864C11.9676 23.3447 12.2659 24.0346 12.2421 24.8851V24.8837Z" fill="#60AB41"/>
</g>
<defs>
<clipPath id="clip0_29_418">
<rect width="26" height="34" fill="white"/>
</clipPath>
</defs>
</svg>
