<svg width="61" height="60" viewBox="0 0 61 60" fill="none" xmlns="http://www.w3.org/2000/svg">
<circle cx="30.0015" cy="30" r="30" fill="#E4F8FB"/>
<g clip-path="url(#clip0_21_991)">
<path d="M39.7445 32.5563C39.432 31.1894 38.881 29.9068 38.2745 28.6494C37.6996 27.4589 37.0605 26.3022 36.3865 25.1653C35.5491 23.7535 34.6813 22.3614 33.7874 20.9857C32.8205 19.4983 31.8569 18.0087 30.8432 16.553C30.4544 15.9955 29.8654 15.7371 29.2567 16.369C29.0738 16.5585 28.9268 16.771 28.7852 16.9846C27.2478 19.3066 25.6853 21.6133 24.2556 24.0054C23.6198 25.0689 22.9686 26.1226 22.397 27.2223C21.5978 28.759 20.8269 30.3099 20.3445 31.989C20.1605 32.633 20.0037 33.288 20.0015 33.9474C19.9994 34.4567 20.0473 34.978 20.1311 35.4939C20.3129 36.6242 20.6625 37.6954 21.1916 38.6965C21.7099 39.6779 22.3839 40.552 23.2049 41.3121C23.7711 41.8367 24.3809 42.2946 25.0462 42.6724C26.5411 43.5235 28.1461 43.9868 30.0995 43.9966C30.3575 44.0142 30.8344 43.9463 31.3135 43.886C31.8754 43.8159 32.4252 43.6965 32.9599 43.518C33.9812 43.1763 34.9427 42.7108 35.8181 42.0711C36.5269 41.553 37.1628 40.9539 37.7094 40.2705C38.2767 39.5618 38.7525 38.7896 39.102 37.9463C39.5376 36.8959 39.7891 35.8072 39.8817 34.667C39.9404 33.9463 39.9013 33.2475 39.7434 32.5574L39.7445 32.5563ZM37.7987 37.1062C37.3621 38.196 36.7534 39.1796 35.9139 40.001C35.3673 40.5366 34.7728 41.0087 34.0901 41.3723C33.4858 41.6943 32.8107 41.4523 32.5265 40.9156C32.2053 40.3088 32.3556 39.6626 32.9348 39.2825C33.3791 38.9912 33.8375 38.7097 34.2077 38.3263C34.8229 37.69 35.3248 36.9725 35.6384 36.1281C35.8606 35.529 35.9673 34.9134 36.0086 34.2825C36.05 33.6582 36.5966 33.1237 37.1987 33.1686C37.9 33.2212 38.3605 33.5607 38.3997 34.3668C38.3224 35.3187 38.1471 36.2332 37.7976 37.1062H37.7987Z" fill="#4DC9DE"/>
</g>
<defs>
<clipPath id="clip0_21_991">
<rect width="19.9062" height="28" fill="white" transform="translate(20.0015 16)"/>
</clipPath>
</defs>
</svg>
