<svg width="70" height="65" viewBox="0 0 70 65" fill="none" xmlns="http://www.w3.org/2000/svg">
<g clip-path="url(#clip0_27_170)">
<path d="M41.0294 17.1537L39.6324 15.7561L35.0736 20.3167C34.6324 20.7581 33.8236 20.8317 33.3089 20.3167L28.6765 15.6825C28.0883 15.0205 27.7206 14.1378 27.7206 13.108C27.7206 12.1517 28.0883 11.269 28.6765 10.607L35.5883 3.69243C35.9559 3.32463 36.3971 3.10396 36.9853 3.17752C37.2059 3.17752 37.4265 2.88328 37.2059 2.6626L34.7059 0.161601C34.4853 -0.0590754 34.0442 -0.0590754 33.8236 0.161601L31.5442 2.44193L26.103 7.88529C24.7794 9.2829 23.8971 11.1219 23.8971 13.1815C23.8971 15.2412 24.7059 17.1537 26.103 18.5513L34.1912 26.6428C34.1912 26.6428 38.9706 21.8615 40.9559 19.8754C41.6912 19.0662 41.6912 17.8893 41.0294 17.1537Z" fill="#231C34"/>
<path d="M47.7206 13.1086L40.0735 5.45848C39.8529 5.2378 39.4117 5.2378 39.1912 5.45848L32.7941 11.8581C32.1323 12.5201 32.1323 13.6235 32.7941 14.2855L33.8235 15.3154C34.0441 15.536 34.4117 15.536 34.6323 15.3154L38.3088 11.6374C39.0441 10.9018 40.147 10.9018 40.8823 11.6374L45 15.7567C46.4706 17.2279 46.4706 19.6553 45 21.1265L37.7206 28.4089C36.1765 29.9536 35 32.0132 34.4117 34.2936C34.3382 34.6614 34.2647 34.9556 34.1912 35.3234C34.1176 34.9556 34.0441 34.6614 33.9706 34.2936C33.2353 31.2777 31.8382 29.6594 30.7353 28.4824C28.6765 26.4228 22.647 20.3909 22.647 20.3909C21.397 19.0669 20.6618 17.375 20.5882 15.4625C20.5882 15.3889 20.5147 14.874 19.9265 14.874C19.6323 14.874 19.4117 15.0947 19.3382 15.3154C19.2647 15.536 19.1912 16.713 19.1912 17.0808C19.1912 19.9496 20.147 22.5977 21.7647 24.7309C22.0588 25.1723 22.4265 25.5401 22.7941 25.9079L33.3823 36.5003C33.6029 36.6475 33.8235 36.7946 34.1176 36.8681H34.4117C34.7059 36.8681 34.9265 36.721 35.147 36.5003L47.7206 23.9218C50.6618 20.9058 50.6618 16.051 47.7206 13.1086Z" fill="#3FAE2A"/>
<path d="M2.86765 37.3086H0V53.6387C0 54.8892 0.220588 56.0661 0.661765 57.1695H3.82353C3.23529 56.1397 2.86765 54.8892 2.86765 53.6387V37.3086Z" fill="#231C34"/>
<path d="M53.5294 53.2787C52.7205 54.0143 51.6911 54.5292 50.4411 54.5292C48.0146 54.5292 46.0294 52.5431 46.0294 50.1157C46.0294 47.6882 48.0146 45.7021 50.4411 45.7021C51.6176 45.7021 52.7205 46.1435 53.5294 46.9526C54.0441 46.0699 54.7058 45.3343 55.5146 44.7459C54.1911 43.4954 52.4264 42.7598 50.4411 42.7598C46.3235 42.7598 43.0146 46.0699 43.0146 50.1892C43.0146 54.3085 46.3235 57.6187 50.4411 57.6187C52.4264 57.6187 54.1911 56.8831 55.5146 55.6326C54.7058 54.897 54.0441 54.1614 53.5294 53.2787Z" fill="#231C34"/>
<path d="M62.5736 42.6855C58.4559 42.6855 55.1471 45.9957 55.1471 50.115C55.1471 54.2343 58.4559 57.5444 62.5736 57.5444C66.6912 57.5444 70 54.2343 70 50.115C70 45.9957 66.6177 42.6855 62.5736 42.6855ZM62.5736 54.5285C60.1471 54.5285 58.1618 52.5424 58.1618 50.115C58.1618 47.6876 60.1471 45.7015 62.5736 45.7015C65 45.7015 66.9853 47.6876 66.9853 50.115C66.9853 52.5424 65 54.5285 62.5736 54.5285Z" fill="#231C34"/>
<path d="M16.0294 47.2394C16.0294 45.8417 15.2941 44.5177 14.2647 43.7821C13.5294 43.2672 12.4265 42.6787 10.3677 42.6787C8.30885 42.6787 7.13237 43.2672 6.47061 43.7821C5.4412 44.5177 4.77943 45.6946 4.7059 47.0922C5.14708 46.9451 5.66179 46.8716 6.10296 46.8716C6.61767 46.8716 7.05884 46.9451 7.50002 47.0922C7.57355 46.7244 7.72061 46.4302 8.01473 46.2095C8.23532 45.9889 8.97061 45.5475 10.3677 45.5475C11.7647 45.5475 12.4265 45.9889 12.6471 46.2095C12.9412 46.5038 13.1618 46.8716 13.1618 47.3129C13.1618 48.1221 12.5 48.7105 11.7647 48.7105H8.60296C6.25002 48.7105 4.33826 50.6231 4.33826 52.977C4.33826 54.2275 4.85296 55.4044 5.73532 56.14C6.47061 56.802 7.57355 57.5376 10.3677 57.5376C11.8383 57.5376 12.9412 57.2434 13.6765 56.802C13.75 56.9491 13.75 57.0963 13.8236 57.2434H16.9853C16.3971 56.2135 16.0294 54.963 16.0294 53.7125V47.2394ZM12.9412 53.639C12.7206 54.0803 12.0588 54.6688 10.2941 54.6688C8.08826 54.6688 7.64708 54.0803 7.42649 53.639C7.27943 53.4183 7.2059 53.1976 7.2059 52.9034C7.2059 52.0942 7.86767 51.5058 8.60296 51.5058H11.6912C12.2059 51.5058 12.6471 51.4322 13.0883 51.2851V52.977C13.1618 53.2712 13.0883 53.4919 12.9412 53.639Z" fill="#231C34"/>
<path d="M41.9852 51.8075V42.9805H39.1176V51.8075C39.1176 53.3523 37.8676 54.6763 36.2499 54.6763C34.6323 54.6763 33.3823 53.4258 33.3823 51.8075V42.9805H30.5146V51.8075C30.5146 53.9407 31.6911 55.7797 33.3823 56.736C34.1911 57.2509 35.2205 57.4716 36.2499 57.4716C37.2794 57.4716 38.2352 57.1773 39.1176 56.736C39.2646 56.6624 39.4117 56.5889 39.5588 56.4417C39.6323 56.6624 39.7058 56.9567 39.7794 57.1773H42.9411C42.3529 56.1475 41.9852 54.897 41.9852 53.6465V51.8075Z" fill="#231C34"/>
<path d="M25.2206 48.7105H22.0589C21.25 48.7105 20.6618 48.0485 20.6618 47.3129C20.6618 46.8716 20.8824 46.5038 21.1765 46.2095C21.3971 45.9889 22.0589 45.5475 23.4559 45.5475C24.853 45.5475 25.5883 45.9889 25.8089 46.2095C26.103 46.4302 26.25 46.7244 26.3236 47.0922C26.7647 46.9451 27.2795 46.8716 27.7206 46.8716C28.2353 46.8716 28.6765 46.9451 29.1177 47.0922C29.0442 45.7682 28.3824 44.5177 27.353 43.7821C26.6177 43.2672 25.5147 42.6787 23.4559 42.6787C21.3971 42.6787 20.2206 43.2672 19.5589 43.7821C18.4559 44.5912 17.7942 45.8417 17.7942 47.2394C17.7942 49.5932 19.7059 51.5058 22.0589 51.5058H25.1471C25.9559 51.5058 26.5442 52.1678 26.5442 52.9034C26.5442 53.1976 26.4706 53.4183 26.3236 53.639C26.103 54.0803 25.6618 54.6688 23.4559 54.6688C21.25 54.6688 20.6618 54.0803 20.4412 53.639C20.2942 53.4183 20.2206 53.1976 20.2206 52.977C19.7795 53.1241 19.2647 53.1976 18.8236 53.1976C18.3089 53.1976 17.8677 53.1241 17.4265 52.977C17.4265 54.2275 18.0147 55.3308 18.8236 56.14C19.5589 56.802 20.6618 57.5376 23.4559 57.5376C26.25 57.5376 27.353 56.8756 28.0883 56.14C28.9706 55.3308 29.4853 54.2275 29.4853 52.977C29.4853 50.6231 27.5736 48.7105 25.2206 48.7105Z" fill="#231C34"/>
<path d="M22.2794 63.5772L22.5735 63.2094C22.8677 63.4301 23.1618 63.5036 23.3824 63.5036C23.6029 63.5036 23.75 63.4301 23.75 63.2094C23.75 62.9887 23.4559 62.9152 23.1618 62.8416C22.7941 62.7681 22.3529 62.5474 22.3529 62.106C22.3529 61.5911 22.7941 61.2969 23.2353 61.2969C23.5294 61.2969 23.8971 61.444 24.1912 61.5911L23.9706 62.0325C23.75 61.8853 23.4559 61.8118 23.2353 61.8118C23.0147 61.8118 22.8677 61.8853 22.8677 62.106C22.8677 62.2531 23.1618 62.4003 23.4559 62.4738C23.8235 62.6209 24.2647 62.7681 24.2647 63.2094C24.2647 63.7243 23.8235 64.0186 23.3088 64.0186C23.0147 64.0186 22.6471 63.8714 22.2794 63.5772Z" fill="#3FAE2A"/>
<path d="M25.5882 61.3701H25V63.9447H25.5882V61.3701Z" fill="#3FAE2A"/>
<path d="M26.3235 61.3704H26.9117V61.7382C27.0588 61.5176 27.3529 61.2969 27.7205 61.2969C28.3088 61.2969 28.6029 61.6647 28.6029 62.2531V63.8714H28.0147V62.4003C28.0147 61.9589 27.7941 61.7382 27.5 61.7382C27.1323 61.7382 26.9117 61.9589 26.9117 62.4003V63.8714H26.3235V61.3704Z" fill="#3FAE2A"/>
<path d="M29.2648 62.6864C29.2648 61.9508 29.853 61.3623 30.5883 61.3623C31.103 61.3623 31.3971 61.5094 31.6177 61.8037L31.2501 62.1715C31.103 61.9508 30.8824 61.8772 30.5883 61.8772C30.1471 61.8772 29.853 62.245 29.853 62.6864C29.853 63.1277 30.1471 63.4955 30.5883 63.4955C30.8824 63.4955 31.103 63.3484 31.2501 63.2013L31.6177 63.5691C31.3971 63.8633 31.103 64.084 30.5883 64.084C29.7795 64.0104 29.2648 63.422 29.2648 62.6864Z" fill="#3FAE2A"/>
<path d="M32.0588 62.6864C32.0588 61.9508 32.5735 61.3623 33.3088 61.3623C34.1177 61.3623 34.5588 62.0243 34.5588 62.7599V62.907H32.6471C32.7206 63.3484 33.0147 63.5691 33.3824 63.5691C33.6765 63.5691 33.8971 63.4955 34.0441 63.2748L34.4118 63.5691C34.1912 63.8633 33.8235 64.084 33.3824 64.084C32.5735 64.0104 32.0588 63.422 32.0588 62.6864ZM33.9706 62.4657C33.8971 62.0979 33.6765 61.8037 33.3088 61.8037C32.9412 61.8037 32.7206 62.0979 32.6471 62.4657H33.9706Z" fill="#3FAE2A"/>
<path d="M37.0588 61.1415L36.4705 61.2886L36.3235 60.7737L37.2058 60.4795H37.647V63.9368H37.0588V61.1415Z" fill="#3FAE2A"/>
<path d="M38.5295 63.5771L38.8236 63.1357C39.1177 63.3564 39.3383 63.43 39.6324 63.43C40.1471 63.43 40.4412 62.9886 40.4412 62.3266C40.2942 62.5473 40.0001 62.6944 39.6324 62.6944C38.8971 62.6944 38.4559 62.253 38.4559 61.591C38.4559 60.929 38.9706 60.4141 39.7059 60.4141C40.1471 60.4141 40.4412 60.5612 40.6618 60.7819C40.8824 61.0025 41.103 61.4439 41.103 62.1059C41.103 63.2093 40.5883 63.9449 39.6324 63.9449C39.1177 64.0185 38.8236 63.7978 38.5295 63.5771ZM40.4412 61.591C40.4412 61.2232 40.1471 60.929 39.7059 60.929C39.2648 60.929 39.0442 61.2232 39.0442 61.591C39.0442 61.9588 39.3383 62.1795 39.7059 62.1795C40.1471 62.253 40.4412 61.9588 40.4412 61.591Z" fill="#3FAE2A"/>
<path d="M41.5441 62.9805C41.5441 62.5391 41.7647 62.3185 42.1323 62.1713C41.8382 62.0242 41.6176 61.8035 41.6176 61.4358C41.6176 60.9208 42.1323 60.4795 42.7941 60.4795C43.4558 60.4795 43.9705 60.8473 43.9705 61.4358C43.9705 61.8035 43.7499 62.0242 43.4558 62.1713C43.8235 62.3185 44.0441 62.6127 44.0441 62.9805C44.0441 63.569 43.4558 63.9368 42.7205 63.9368C41.9852 63.9368 41.5441 63.569 41.5441 62.9805ZM43.6029 62.9805C43.6029 62.6863 43.3088 62.4656 42.8676 62.4656C42.4264 62.4656 42.1323 62.6863 42.1323 62.9805C42.1323 63.2747 42.4264 63.4954 42.8676 63.4954C43.3088 63.4954 43.6029 63.2747 43.6029 62.9805ZM43.4558 61.4358C43.4558 61.1415 43.2352 60.9208 42.8676 60.9208C42.4999 60.9208 42.2794 61.1415 42.2794 61.3622C42.2794 61.6564 42.5735 61.8771 42.8676 61.8771C43.1617 61.8771 43.4558 61.73 43.4558 61.4358Z" fill="#3FAE2A"/>
<path d="M44.7059 62.2449C44.7059 61.2886 45.2942 60.4795 46.1765 60.4795C47.0589 60.4795 47.6471 61.2886 47.6471 62.2449C47.6471 63.2012 47.0589 64.0103 46.1765 64.0103C45.2942 64.0103 44.7059 63.2012 44.7059 62.2449ZM47.0589 62.2449C47.0589 61.5829 46.6912 60.9944 46.1765 60.9944C45.6618 60.9944 45.2942 61.5093 45.2942 62.2449C45.2942 62.9069 45.6618 63.4954 46.1765 63.4954C46.6912 63.4218 47.0589 62.9069 47.0589 62.2449Z" fill="#3FAE2A"/>
<path d="M25.3677 61.0757C25.0736 61.0757 24.9265 60.9286 24.9265 60.708V60.6344C24.9265 60.4137 25.0736 60.2666 25.2942 60.2666H25.3677C25.5883 60.2666 25.7353 60.4137 25.7353 60.6344V60.708C25.6618 60.9286 25.5147 61.0757 25.3677 61.0757Z" fill="#3FAE2A"/>
<path d="M48.0147 36.8016C46.9853 36.8016 46.1029 35.9189 46.1029 34.8891C46.1029 33.8593 46.9853 32.9766 48.0147 32.9766C49.0441 32.9766 49.9264 33.8593 49.9264 34.8891C49.9264 35.9189 49.1176 36.8016 48.0147 36.8016ZM48.0147 33.2708C47.1323 33.2708 46.397 34.0064 46.397 34.8891C46.397 35.7718 47.1323 36.5074 48.0147 36.5074C48.897 36.5074 49.6323 35.7718 49.6323 34.8891C49.6323 34.0064 48.9706 33.2708 48.0147 33.2708Z" fill="#231C34"/>
<path d="M47.2794 33.999H48.0882C48.3088 33.999 48.4559 34.0726 48.6029 34.1461C48.6765 34.2197 48.75 34.3668 48.75 34.5139C48.75 34.8082 48.6029 34.9553 48.3824 35.0288L48.8235 35.6909H48.3824L48.0147 35.1024H47.7206V35.7644H47.3529L47.2794 33.999ZM48.0882 34.8817C48.3088 34.8817 48.3824 34.8082 48.3824 34.6611C48.3824 34.5139 48.2353 34.4404 48.0882 34.4404H47.7206V34.9553L48.0882 34.8817Z" fill="#231C34"/>
</g>
<defs>
<clipPath id="clip0_27_170">
<rect width="70" height="64.0845" fill="white"/>
</clipPath>
</defs>
</svg>
