<svg width="32" height="44" viewBox="0 0 32 44" fill="none" xmlns="http://www.w3.org/2000/svg">
<path d="M20.2045 9.62317C20.0793 9.26515 20.1924 8.89852 20.2358 8.55772C20.4115 7.19622 20.7506 5.87603 21.4236 4.65567C22.6514 2.42839 24.5695 1.05829 26.9572 0.287172C27.3502 0.1598 27.778 0.118491 28.185 0.0134952C28.3293 -0.0226508 28.4215 0.0134952 28.491 0.20111C28.8076 1.04624 28.9693 1.91374 29.0806 2.80706C29.2649 4.28389 29.0249 5.68325 28.4719 7.04647C27.865 8.54051 26.8842 9.7471 25.6338 10.7712C24.5608 11.6491 23.3922 12.3565 22.1314 12.9193C21.594 13.1603 21.4497 13.6801 21.1819 14.107C20.6984 14.8764 20.2654 15.6768 19.8063 16.4754C19.9872 16.5649 20.0793 16.4066 20.1871 16.3188C21.5749 15.1879 23.1366 14.3944 24.9138 14.1122C26.5538 13.8522 28.1589 14.0863 29.7119 14.6819C30.4579 14.9676 31.1379 15.3549 31.8039 15.7886C32.0335 15.9384 32.0422 16.0451 31.943 16.2585C31.5952 16.9969 31.1709 17.6889 30.6614 18.3275C29.9118 19.2655 28.9988 20.0057 27.945 20.5926C27.0598 21.0866 26.1173 21.3844 25.1278 21.572C22.7992 22.0144 20.5871 21.5118 18.4064 20.7613C18.1142 20.6615 17.8221 20.3912 17.5421 20.4807C17.2621 20.5702 17.2047 20.9627 17.0517 21.2243C16.2187 22.6478 15.3891 24.073 14.5596 25.4964C14.5318 25.5429 14.5109 25.5911 14.4292 25.7494C15.0553 25.2882 15.57 24.8751 16.1404 24.536C17.3003 23.8458 18.5212 23.3552 19.8811 23.1951C22.3453 22.9042 24.54 23.5669 26.5642 24.9233C26.7659 25.0592 26.7364 25.1505 26.6494 25.3329C25.3625 28.0301 23.307 29.8219 20.3663 30.562C19.6759 30.7359 18.9611 30.7393 18.2481 30.7823C16.2361 30.9045 14.3892 30.2883 12.5458 29.6377C12.3302 29.562 12.1963 29.5035 12.0572 29.7479C11.1076 31.3951 10.1477 33.0337 9.19122 34.6775C9.17383 34.7068 9.15992 34.7395 9.09384 34.8754C9.68859 34.4383 10.1668 34.032 10.7024 33.7067C11.8763 32.9924 13.111 32.476 14.5005 32.3039C16.9995 31.9958 19.2289 32.6413 21.2758 34.032C21.4306 34.137 21.434 34.1973 21.3662 34.3642C20.9854 35.3006 20.4184 36.1251 19.7454 36.8635C19.0776 37.595 18.3264 38.237 17.4412 38.731C16.4778 39.268 15.4587 39.614 14.377 39.7827C13.2223 39.9617 12.0537 39.9479 10.9059 39.7724C9.61729 39.5761 8.36518 39.2061 7.16698 38.6845C6.967 38.5968 6.87309 38.6277 6.76179 38.8171C5.84532 40.4006 4.92015 41.979 3.98977 43.5556C3.74804 43.9636 3.23328 44.1168 2.86113 43.9137C2.45246 43.6899 2.27508 43.1839 2.50985 42.7467C2.86461 42.0823 3.25589 41.4385 3.63674 40.7879C4.20019 39.8223 4.77059 38.8601 5.33404 37.8962C5.39665 37.7912 5.38969 37.7258 5.261 37.6243C4.49235 37.0287 3.76717 36.3815 3.10112 35.6741C1.65772 34.1422 0.582994 32.4175 0.169103 30.3211C-0.345652 27.7185 0.400395 25.4259 1.82119 23.2777C1.93075 23.1108 2.06639 23.0746 2.25942 23.1641C3.67326 23.8148 4.85928 24.7356 5.85227 25.9336C6.9183 27.2211 7.48349 28.6979 7.72 30.3142C7.89042 31.4812 7.81912 32.6447 7.55479 33.7962C7.54609 33.8307 7.56522 33.872 7.58435 33.9873C7.96172 33.3608 8.31127 32.7927 8.6469 32.2179C9.24166 31.2058 9.81728 30.1834 10.4225 29.1764C10.7164 28.6859 10.7094 28.6084 10.2451 28.247C8.59126 26.9595 7.18438 25.4551 6.25747 23.5704C5.58794 22.2071 5.18622 20.7544 5.301 19.2208C5.44012 17.3567 6.07139 15.6544 7.17916 14.1311C7.3148 13.9435 7.43654 14.0072 7.57566 14.0708C8.97558 14.7232 10.1599 15.6337 11.1459 16.8265C12.1893 18.0899 12.758 19.5392 13.0136 21.1228C13.2101 22.3311 13.0936 23.5377 12.8693 24.7821C13.2154 24.5997 13.278 24.2537 13.431 23.9989C14.2727 22.5944 15.0657 21.1623 15.8987 19.7526C16.0065 19.5685 15.9665 19.5254 15.8309 19.417C15.0622 18.7991 14.3266 18.1416 13.6501 17.4221C12.1963 15.8764 11.1424 14.1294 10.7546 12.014C10.3407 9.76087 10.8607 7.70399 12.0154 5.78136C12.6136 4.78477 12.638 4.83124 13.6762 5.40958C15.0292 6.16348 16.1335 7.16868 16.9821 8.44928C17.6412 9.44416 18.0568 10.532 18.236 11.7162C18.3351 12.3754 18.4064 13.0278 18.4046 13.6939C18.4012 14.3721 18.236 15.0313 18.1977 15.7955C18.4638 15.3618 18.6968 14.9986 18.9124 14.6285C19.2794 14.0003 19.6098 13.3514 20.0045 12.742C20.3141 12.2653 20.255 11.773 20.1715 11.279C20.1472 11.1379 20.1715 11.0415 20.2132 10.9296C20.2132 10.4976 20.2132 10.0638 20.2132 9.63177L20.2045 9.62317Z" fill="#60AB41"/>
</svg>
