<svg width="17" height="20" viewBox="0 0 17 20" fill="none" xmlns="http://www.w3.org/2000/svg">
<g clip-path="url(#clip0_93_483)">
<path d="M16.1716 9.37948C15.6545 7.87331 14.8896 6.49285 13.9827 5.19311C13.3212 4.23013 12.5916 3.32481 11.821 2.44833C11.1334 1.66641 10.3799 0.953691 9.65709 0.209833C9.43092 -0.0231278 9.14565 -0.0611857 8.94903 0.0910458C8.81492 0.19484 8.68309 0.303247 8.56262 0.423187C7.4511 1.52917 6.37481 2.66976 5.40877 3.91067C4.59843 4.95323 3.84833 6.03846 3.23233 7.21018C2.60611 8.40381 2.08786 9.64127 1.86396 10.9906C1.73553 11.7621 1.65143 12.5279 1.80145 13.3041C1.79577 13.3513 1.77872 13.4009 1.78781 13.4459C1.91965 14.1079 2.08217 14.7572 2.34357 15.3857C2.86183 16.6347 3.66876 17.6588 4.71549 18.4672C6.03045 19.4844 7.52725 20.0069 9.20362 19.9999C10.1231 19.9953 11.0073 19.8431 11.8585 19.5156C13.0007 19.0762 13.9793 18.3888 14.7976 17.4581C15.4079 16.7639 15.908 16.0004 16.2137 15.1297C16.6171 13.9822 16.8172 12.8047 16.6558 11.5684C16.558 10.8188 16.4148 10.0853 16.1728 9.37948H16.1716Z" fill="white"/>
<path d="M15.1281 0.117543C14.1655 0.155601 13.5291 0.82911 13.5075 1.7944C13.4881 2.72047 14.2064 3.4874 15.1634 3.49662C16.0385 3.5047 16.8897 2.74584 16.8375 1.81054C16.8977 0.910992 16.1021 0.0783317 15.127 0.117543H15.1281Z" fill="white"/>
<path d="M2.89576 3.49555C3.52085 3.49555 3.95841 3.07922 3.9675 2.44261C3.96978 1.88558 3.57427 1.42773 3.09124 1.42773C2.35819 1.42773 1.83198 1.84637 1.87971 2.44376C1.92404 2.98926 2.31386 3.49324 2.89576 3.49439V3.49555Z" fill="white"/>
<path d="M0.880837 6.31887C0.384177 6.31541 0.00571585 6.66831 3.32457e-05 7.14115C-0.00451284 7.54134 0.458051 8.03609 0.846741 8.04532C1.26953 8.0557 1.698 7.61515 1.70027 7.16768C1.70368 6.63141 1.40591 6.32349 0.880837 6.31887Z" fill="white"/>
<path d="M14.2144 10.7344C14.2144 11.5775 14.2087 12.4217 14.219 13.2647C14.2212 13.4562 14.1622 13.5127 13.978 13.5057C13.62 13.4931 13.2598 13.4942 12.9006 13.5057C12.737 13.5104 12.6904 13.4527 12.6926 13.2912C12.7006 12.7354 12.6904 12.1795 12.6994 11.6236C12.7029 11.4472 12.6688 11.3664 12.471 11.3745C12.0744 11.3895 11.6777 11.3872 11.2811 11.3745C11.1038 11.3687 11.056 11.4322 11.0583 11.6052C11.0674 12.1518 11.0549 12.6985 11.0663 13.244C11.0708 13.4389 11.0208 13.5161 10.8162 13.5057C10.4673 13.4896 10.1173 13.4954 9.76722 13.5046C9.61152 13.5081 9.55015 13.4642 9.55129 13.2959C9.55697 11.5902 9.55697 9.88333 9.55356 8.17764C9.55356 8.01042 9.61266 7.96429 9.76836 7.96775C10.1275 7.97582 10.4866 7.98043 10.8458 7.96659C11.0288 7.95967 11.0674 8.03348 11.064 8.20071C11.0549 8.70815 11.0663 9.21674 11.0583 9.72418C11.056 9.89371 11.0981 9.9629 11.2788 9.95598C11.6754 9.9433 12.0732 9.94214 12.4687 9.95598C12.6608 9.9629 12.7051 9.89371 12.7017 9.71034C12.6904 9.21212 12.7051 8.71391 12.6938 8.2157C12.6904 8.03579 12.729 7.95737 12.9245 7.96429C13.2825 7.97813 13.6428 7.97697 14.0008 7.96429C14.186 7.95737 14.2178 8.03925 14.2167 8.20301C14.211 9.04605 14.2133 9.89025 14.2144 10.7333V10.7344Z" fill="#3FAE2A"/>
<path d="M4.21655 11.784C4.21996 11.0275 4.23246 10.271 4.21883 9.51441C4.21542 9.27914 4.29043 9.21341 4.5075 9.23417C4.6848 9.25146 4.86664 9.24339 5.04508 9.23647C5.15305 9.23186 5.23715 9.26646 5.27579 9.36218C5.34966 9.54785 5.444 9.52825 5.57583 9.42215C5.84064 9.20995 6.14523 9.11769 6.48619 9.13729C6.66462 9.14767 6.84419 9.13383 7.02376 9.13037C8.02503 9.24685 8.83878 10.0853 8.84219 11.1913C8.84333 11.7022 8.82742 12.2004 8.5342 12.6398C8.14551 13.2222 7.60566 13.5474 6.91238 13.6293C6.52483 13.6754 6.16228 13.6316 5.82132 13.4424C5.69289 13.3709 5.6588 13.4067 5.65993 13.5428C5.66334 13.9545 5.65084 14.3662 5.66562 14.7779C5.67357 14.9832 5.60197 15.0409 5.40876 15.0328C5.09849 15.019 4.78595 15.0178 4.47454 15.0328C4.27224 15.0432 4.2211 14.9694 4.22224 14.7722C4.22792 13.7769 4.21996 12.7805 4.21769 11.7852L4.21655 11.784ZM5.54515 11.332C5.51673 11.9582 5.97361 12.3561 6.443 12.3491C6.96466 12.3411 7.41927 11.9974 7.41586 11.3619C7.41359 10.8903 7.14082 10.4359 6.49414 10.3909C6.03271 10.3598 5.48377 10.858 5.54401 11.332H5.54515Z" fill="#3FAE2A"/>
</g>
<defs>
<clipPath id="clip0_93_483">
<rect width="16.8421" height="20" fill="white"/>
</clipPath>
</defs>
</svg>
