<svg width="61" height="60" viewBox="0 0 61 60" fill="none" xmlns="http://www.w3.org/2000/svg">
<circle cx="30.0015" cy="30" r="30" fill="#FDF1E2"/>
<g clip-path="url(#clip0_21_1040)">
<path d="M16.0015 31.2685C15.9818 22.1782 22.246 16.4177 28.9555 16.0285C32.7526 15.8081 36.1495 16.8387 39.053 19.3046C41.8645 21.6925 43.5169 24.7416 43.9094 28.4256C44.337 32.434 43.2702 36.0193 40.6452 39.0826C38.0212 42.1449 34.6364 43.7906 30.6177 43.9825C26.6517 44.1721 23.1956 42.8433 20.3217 40.0924C17.4533 37.347 16.0552 33.9525 16.0015 31.2685ZM19.689 36.8361C22.0443 40.167 25.1956 42.1098 29.2131 42.3269C33.8699 42.5791 37.5706 40.6603 40.3294 36.8361H19.689ZM27.2745 30.0132C27.2351 30.3925 27.348 30.7784 27.5223 31.1249C27.8962 31.8705 28.4664 32.4022 29.3041 32.6237C30.3612 32.9033 31.2702 32.6062 31.9862 31.8485C32.8052 30.9813 32.9324 29.9364 32.4741 28.8301C32.45 28.7731 32.3897 28.7468 32.4818 28.6602C32.9719 28.1975 33.4456 27.7173 33.9237 27.2414C34.962 26.2042 36.0004 25.1659 37.0377 24.1287C37.2877 23.8788 37.4708 23.5981 37.3831 23.2242C37.3063 22.8975 37.0903 22.6914 36.7647 22.6168C36.4511 22.5455 36.1934 22.642 35.962 22.8734C34.4642 24.3798 32.9577 25.8764 31.4609 27.384C31.3129 27.5331 31.1934 27.5397 31.0103 27.4651C30.4851 27.2524 29.9313 27.1866 29.3831 27.3248C28.155 27.6329 27.2658 28.7216 27.2745 30.0142V30.0132ZM28.9171 20.6827C28.8743 21.2715 29.462 21.7923 29.9566 21.7813C30.5805 21.7682 31.1331 21.2858 31.0947 20.6915C31.053 20.0446 30.7274 19.6368 29.9642 19.6028C29.3359 19.5754 28.882 20.1751 28.9171 20.6827ZM19.6123 29.9715C19.5651 30.5668 20.1375 31.0865 20.6364 31.0832C21.2723 31.08 21.8447 30.5701 21.791 29.9825C21.7285 29.2961 21.371 28.9299 20.6462 28.9069C20.0081 28.886 19.5805 29.4978 19.6112 29.9715H19.6123ZM39.2504 31.0811C39.8886 31.0832 40.4598 30.5635 40.4028 29.9781C40.3348 29.2797 39.9664 28.9266 39.2548 28.9058C38.6177 28.8882 38.2373 29.4946 38.2164 29.9463C38.1879 30.5646 38.7548 31.0964 39.2515 31.08L39.2504 31.0811ZM24.4829 23.427C24.5596 22.7407 23.8853 22.3219 23.4127 22.3219C22.8316 22.3219 22.3403 22.8668 22.337 23.3788C22.3337 23.9687 22.7767 24.507 23.3513 24.507C23.9587 24.507 24.5245 24.1167 24.4829 23.427Z" fill="#FFB648"/>
</g>
<defs>
<clipPath id="clip0_21_1040">
<rect width="28" height="28" fill="white" transform="translate(16.0015 16)"/>
</clipPath>
</defs>
</svg>
