<svg width="57" height="48" viewBox="0 0 57 48" fill="none" xmlns="http://www.w3.org/2000/svg">
<path d="M46.814 18.7619L46.4547 20.5564H48.2848H49.0644C51.2708 20.5564 52.8068 21.3505 53.8139 22.5335C54.8484 23.7488 55.4387 25.5125 55.4387 27.6023C55.4387 31.4872 52.2766 34.6481 48.3831 34.6481H11.4074C5.97359 34.6481 1.5 29.8508 1.5 24.7536C1.5 19.6607 5.50317 15.3803 10.6468 14.9522L12.1385 14.828L12.0174 13.336C11.4975 6.93074 16.522 1.5 22.8148 1.5C27.7247 1.5 31.7951 4.7681 33.1845 9.19182L33.7208 10.8992L35.3082 10.0729C41.1811 7.01581 48.1383 12.1478 46.814 18.7619Z" fill="#F4F4F4" stroke="#E7E7E7" stroke-width="3"/>
<rect x="35.0984" y="27.0498" width="3" height="20" rx="1.5" fill="#D9D9D9"/>
<rect x="26.0984" y="27.0498" width="3" height="17.2727" rx="1.5" fill="#D9D9D9"/>
<rect x="17.0984" y="27.0498" width="3" height="13.6364" rx="1.5" fill="#D9D9D9"/>
</svg>
