<svg width="34" height="34" viewBox="0 0 34 34" fill="none" xmlns="http://www.w3.org/2000/svg">
<path d="M16.9903 32.0042C13.4278 32.0042 9.86402 32.0068 6.30155 31.9988C6.05536 31.9988 5.94091 32.0401 5.97418 32.3141C6.0008 32.5323 5.9835 32.7558 5.97817 32.978C5.96487 33.5141 5.52305 33.9877 4.98941 33.9917C3.62804 34.0036 2.268 34.0023 0.906621 33.9903C0.403591 33.985 0.0110141 33.5753 0.00835259 33.0618C-0.000962785 31.6902 -0.00229355 30.3173 0.00835259 28.9457C0.0123449 28.4203 0.423552 28.0358 0.950536 28.0225C1.23798 28.0158 1.52676 28.0132 1.81287 28.0238C1.95926 28.0291 2.01648 27.9812 1.99652 27.8362C1.98987 27.7817 1.99652 27.7258 1.99652 27.67C1.99652 20.5554 1.99386 13.4408 2.0045 6.32621C2.0045 6.0362 1.9393 5.95505 1.64786 5.96702C1.32315 5.98033 0.99179 6.03354 0.668413 5.9178C0.259868 5.77546 0.00968335 5.48012 0.00702182 5.05309C-0.000962785 3.68152 -0.00362432 2.30996 0.00702182 0.937062C0.0110141 0.39695 0.424883 0.00716427 0.971828 0.00450362C2.28929 0.000512645 3.60542 0.000512645 4.92288 0.00450362C5.51773 0.00583395 5.97019 0.463466 5.97817 1.05413C5.98084 1.28694 5.99547 1.52107 5.97418 1.75122C5.95289 1.97072 6.04205 1.99866 6.23501 1.99866C13.4158 1.99334 20.598 1.99334 27.7788 1.99999C27.9944 1.99999 28.0396 1.93348 28.0263 1.73925C28.0104 1.48516 28.0183 1.23106 28.0237 0.975641C28.0356 0.410253 28.4269 0.00716427 28.9871 0.00450362C30.3152 -0.00081768 31.6434 -0.00214801 32.9701 0.00450362C33.5424 0.00716427 33.9948 0.471448 33.9962 1.04881C34.0001 2.34322 34.0001 3.63762 33.9962 4.93203C33.9948 5.50806 33.541 5.9617 32.9688 5.97766C32.9582 5.97766 32.9462 5.97766 32.9355 5.97766C32.6308 6.00028 32.2236 5.84463 32.0506 6.04285C31.9015 6.21446 32.0067 6.6109 32.0067 6.90889C32.0067 13.8239 32.008 20.739 31.9987 27.6553C31.9987 27.956 32.0692 28.0651 32.3726 28.0265C32.5682 28.0012 32.7705 28.0172 32.9701 28.0225C33.5437 28.0358 33.9948 28.4908 33.9975 29.0668C34.0015 30.3506 34.0001 31.6343 33.9975 32.9168C33.9975 33.5487 33.5437 33.9943 32.9036 33.9957C31.6194 33.997 30.3365 33.9983 29.0523 33.9957C28.4096 33.9957 28.029 33.6059 28.021 32.9567C28.017 32.6494 28.1248 32.2303 27.9678 32.064C27.7855 31.8698 27.3636 32.0068 27.0469 32.0068C23.6947 32.0028 20.3425 32.0042 16.9903 32.0042ZM30.0145 17.014V7.52084C30.0145 7.07784 30.0052 6.63485 30.0185 6.19318C30.0238 6.01491 29.9666 5.96702 29.7949 5.975C29.5194 5.98831 29.2413 5.98299 28.9645 5.97633C28.524 5.96569 28.2206 5.7249 28.0769 5.30319C27.9691 4.98923 28.017 4.66729 28.0303 4.35334C28.0423 4.05401 27.9611 3.97819 27.6564 3.97819C20.7404 3.9875 13.8244 3.98484 6.90705 3.98617C6.61029 3.98617 6.21239 3.88107 6.04072 4.03007C5.84244 4.20301 5.98749 4.61009 5.97817 4.91473C5.96354 5.41228 5.69073 5.75949 5.21298 5.92312C4.91755 6.02423 4.62212 5.98033 4.33202 5.96702C4.03792 5.95372 3.97537 6.03886 3.97537 6.32754C3.98469 13.4421 3.98202 20.558 3.98202 27.6726C3.98202 27.7285 3.98868 27.7844 3.98202 27.8389C3.96073 27.9879 4.02594 28.0291 4.16833 28.0225C4.41186 28.0118 4.65539 28.0185 4.89892 28.0198C5.5164 28.0252 5.96886 28.4721 5.97418 29.0841C5.97551 29.2717 5.99547 29.4632 5.97019 29.6481C5.92761 29.9568 6.05004 30.0193 6.34414 30.018C13.4491 30.01 20.5527 30.0113 27.6577 30.0113C27.7136 30.0113 27.7695 30.0047 27.8241 30.0113C27.9904 30.0366 28.029 29.9594 28.0237 29.8065C28.013 29.5297 28.021 29.253 28.021 28.9763C28.021 28.5693 28.3231 28.1502 28.7143 28.0624C29.0444 27.9892 29.3717 28.0185 29.6964 28.0265C29.9586 28.0331 30.0185 27.9586 30.0185 27.7006C30.0092 24.1379 30.0118 20.574 30.0118 17.0114L30.0145 17.014Z" fill="#60AB41"/>
</svg>
