<svg width="61" height="60" viewBox="0 0 61 60" fill="none" xmlns="http://www.w3.org/2000/svg">
<circle cx="30.0015" cy="30" r="30" fill="#FDF7E2"/>
<g clip-path="url(#clip0_19_847)">
<path d="M17.3763 31.4956C17.012 31.4493 16.5312 31.5821 16.0668 31.4317C15.3281 31.1938 14.8749 30.4823 15.0339 29.7107C15.1754 29.0242 15.6687 28.5057 16.525 28.4969C17.1484 28.4906 17.7731 28.4881 18.3966 28.4969C19.3055 28.5107 19.8889 28.9954 20.0191 29.9098C20.1193 30.6201 19.3756 31.4718 18.6395 31.4919C18.2551 31.5019 17.8695 31.4931 17.3775 31.4931L17.3763 31.4956Z" fill="#FCD400"/>
<path d="M39.5268 18.9998C40.1716 18.8996 40.7662 19.4069 40.9427 19.9192C41.1067 20.394 41.0792 21.0679 40.5772 21.5351C40.1127 21.966 39.6683 22.4207 39.2301 22.8792C38.4151 23.7322 36.9992 23.4428 36.6887 22.2704C36.556 21.7706 36.6298 21.2921 36.9654 20.9176C37.4849 20.3376 38.0458 19.794 38.6142 19.2616C38.8645 19.0274 39.2013 18.9447 39.5268 18.9998Z" fill="#FCD400"/>
<path d="M42.3787 31.4968C42.0106 31.4505 41.5299 31.5832 41.0654 31.4329C40.3167 31.1912 39.8773 30.5035 40.025 29.7181C40.1477 29.0642 40.6973 28.4918 41.5161 28.4955C42.1608 28.4993 42.8068 28.4818 43.4516 28.5006C44.1138 28.5193 44.6309 28.8012 44.8888 29.4413C45.2781 30.4083 44.6046 31.4254 43.5743 31.4918C43.2112 31.5156 42.8456 31.4955 42.3774 31.4955L42.3787 31.4968Z" fill="#FCD400"/>
<path d="M31.4968 16.3718C31.5218 17.1209 31.5231 17.8699 31.4968 18.6203C31.4843 18.6428 31.4705 18.6666 31.458 18.6891C31.4354 19.6299 30.1873 20.4015 29.2095 19.7814C28.7663 19.5008 28.5159 19.0988 28.5147 18.5614C28.5134 17.8436 28.526 17.1246 28.5122 16.4069C28.4947 15.5163 29.5037 14.8186 30.2536 15.0428C30.981 15.2595 31.4279 15.6603 31.458 16.3029C31.4718 16.3255 31.4843 16.3493 31.498 16.3718H31.4968Z" fill="#FCD400"/>
<path d="M20.4112 18.9969C20.9219 18.9255 21.3075 19.1559 21.6368 19.5079C22.1326 20.0365 22.726 20.48 23.1354 21.085C23.5873 21.7539 23.3457 22.895 22.4493 23.247C21.7858 23.5075 21.2124 23.3622 20.7291 22.8562C20.2196 22.3238 19.6237 21.8691 19.203 21.2603C18.6484 20.4587 19.0178 19.399 19.9279 19.0407C20.0957 18.9743 20.2547 19.0257 20.4124 18.9981L20.4112 18.9969Z" fill="#FCD400"/>
<path d="M31.4969 41.3739C31.5232 42.123 31.5232 42.872 31.4969 43.6224C31.4844 43.6449 31.4706 43.6687 31.4581 43.6913C31.408 44.7284 30.111 45.3585 29.2084 44.7823C28.7652 44.4992 28.516 44.0983 28.5148 43.5622C28.5148 42.8132 28.496 42.0629 28.5236 41.3151C28.5561 40.4407 29.5088 39.842 30.2237 40.0399C31.0199 40.2604 31.4255 40.6599 31.4568 41.305C31.4694 41.3276 31.4831 41.3514 31.4956 41.3739H31.4969Z" fill="#FCD400"/>
<path d="M38.1071 36.6926C38.6004 36.6237 38.9735 36.8317 39.2877 37.1674C39.7835 37.696 40.3706 38.1407 40.7875 38.7407C41.3221 39.5085 40.9766 40.6684 39.9725 40.9853C39.3766 41.1732 38.8708 40.9991 38.4401 40.5757C37.9957 40.1386 37.5613 39.6889 37.1144 39.2542C36.531 38.688 36.4258 37.7586 37.0442 37.0784C37.3172 36.7778 37.6852 36.6087 38.1071 36.6939V36.6926Z" fill="#FCD400"/>
<path d="M21.8145 36.6889C22.5557 36.61 23.0777 37.0246 23.2655 37.6484C23.4408 38.2309 23.3819 38.7583 22.8686 39.2468C22.4242 39.6702 22.0011 40.1136 21.5654 40.5445C20.6264 41.4714 19.3482 41.0706 18.9877 39.9169C18.8474 39.4697 18.9413 38.9812 19.2743 38.6205C19.8089 38.0418 20.3685 37.4844 20.9407 36.942C21.1835 36.7127 21.504 36.615 21.8133 36.6877L21.8145 36.6889Z" fill="#FCD400"/>
<path d="M31.4968 16.3716C31.4831 16.3491 31.4706 16.3253 31.4568 16.3027C31.4856 16.3165 31.5156 16.3303 31.4968 16.3716Z" fill="#393B3B"/>
<path d="M31.458 18.689C31.4705 18.6665 31.4843 18.6427 31.4968 18.6201C31.5156 18.6615 31.4868 18.6752 31.458 18.689Z" fill="#393B3B"/>
<path d="M38.4876 29.5591C38.4764 29.5365 38.4651 29.514 38.4551 29.4927C38.4801 29.5077 38.5139 29.519 38.4876 29.5591Z" fill="#393B3B"/>
<path d="M38.4551 30.4385C38.4676 30.416 38.4801 30.3934 38.4926 30.3696C38.5127 30.411 38.4826 30.4235 38.4551 30.4385Z" fill="#393B3B"/>
<path d="M31.4968 41.3736C31.4843 41.351 31.4705 41.3272 31.458 41.3047C31.4868 41.3185 31.5168 41.3322 31.4968 41.3736Z" fill="#393B3B"/>
<path d="M31.458 43.69C31.4705 43.6674 31.4843 43.6436 31.4968 43.6211C31.5156 43.6624 31.4868 43.6762 31.458 43.69Z" fill="#393B3B"/>
<path d="M38.4877 29.5592C38.4765 29.5367 38.4652 29.5141 38.4552 29.4928C38.5003 29.1809 38.4289 28.8703 38.3738 28.5734C38.1009 27.1028 37.5175 25.7738 36.5497 24.6102C35.771 23.6745 34.8571 22.9129 33.7717 22.3868C32.3282 21.6866 30.7984 21.3972 29.1821 21.55C28.1581 21.6465 27.1878 21.8983 26.2714 22.3454C25.1359 22.9003 24.1757 23.6845 23.3769 24.669C22.1463 26.1872 21.5579 27.9408 21.4665 29.8699C21.4402 30.4398 21.5379 31.0085 21.6418 31.5734C21.9147 33.0552 22.5406 34.3717 23.5134 35.5079C24.4223 36.5688 25.5278 37.388 26.836 37.9066C27.6097 38.2135 28.4122 38.4402 29.241 38.4853C29.9583 38.5241 30.6794 38.5154 31.3993 38.3838C32.2732 38.2235 33.1044 37.9492 33.8919 37.5534C34.9761 37.0072 35.8812 36.2281 36.6386 35.2799C37.7679 33.8644 38.3851 32.2536 38.4552 30.4385C38.4677 30.416 38.4802 30.3935 38.4927 30.3697C38.5203 30.0991 38.519 29.8285 38.4877 29.558V29.5592ZM30.2851 36.8657C29.9946 36.877 29.7029 36.8707 29.4125 36.8544C28.7427 36.8181 28.0942 36.6352 27.4695 36.3872C26.4116 35.9676 25.519 35.3074 24.7854 34.4494C24.0004 33.5325 23.4946 32.469 23.2743 31.2715C23.1904 30.8156 23.1103 30.3559 23.1328 29.8949C23.2067 28.3367 23.6812 26.92 24.6764 25.6937C25.3224 24.8983 26.0974 24.2644 27.0138 23.816C27.7537 23.4552 28.5374 23.2523 29.3649 23.1734C29.6754 23.1446 29.9821 23.1358 30.2851 23.1459V36.8632V36.8657Z" fill="#FCD400"/>
</g>
<defs>
<clipPath id="clip0_19_847">
<rect width="30" height="30" fill="white" transform="translate(15.0015 15)"/>
</clipPath>
</defs>
</svg>
