<svg width="61" height="60" viewBox="0 0 61 60" fill="none" xmlns="http://www.w3.org/2000/svg">
<circle cx="30.0015" cy="30" r="30" fill="#E5F7ED"/>
<g clip-path="url(#clip0_20_898)">
<path d="M43.9225 29.2334C43.8288 28.4054 43.7411 27.5774 43.545 26.7655C42.9818 24.4395 41.8875 22.3929 40.287 20.6213C39.1356 19.3471 37.7765 18.3289 36.2447 17.5551C34.5477 16.6978 32.7307 16.2502 30.8405 16.0834C30.2553 15.9722 29.6686 15.9722 29.0834 16.0834C22.0655 16.4945 16.3423 22.2408 16.0015 29.2334C16.0015 29.7703 16.0015 30.3087 16.0015 30.8456C16.3072 37.7856 22.1314 43.6782 29.1551 43.9985C29.692 43.9985 30.2304 43.9985 30.7673 43.9985C37.8262 43.5611 43.4411 38.0123 43.921 30.8456C44.0278 30.3087 44.0278 29.7703 43.921 29.2334H43.9225ZM17.4996 28.6907C18.2135 22.1822 23.47 18.3319 27.7053 17.7862C26.9036 18.405 26.2131 19.0633 25.6118 19.8094C24.4575 21.2416 23.6616 22.8596 23.0794 24.599C22.7429 25.6025 22.5308 26.6309 22.3845 27.6667C22.2294 28.758 22.2616 29.8669 22.282 30.9714C22.3069 32.3392 22.5278 33.6821 22.917 34.9768C23.7787 37.8412 25.1861 40.3778 27.6307 42.227C27.6556 42.246 27.6687 42.2826 27.717 42.3572C21.1936 41.1078 16.7827 35.224 17.4996 28.6907Z" fill="#22B573"/>
</g>
<defs>
<clipPath id="clip0_20_898">
<rect width="28" height="28" fill="white" transform="translate(16.0015 16)"/>
</clipPath>
</defs>
</svg>
