<svg width="56" height="55" viewBox="0 0 56 55" fill="none" xmlns="http://www.w3.org/2000/svg">
<g clip-path="url(#clip0_33_723)">
<path d="M28.0492 12.0825C19.3884 12.0825 12.3022 19.0421 12.3022 27.5482C12.3022 36.0544 19.3884 43.014 28.0492 43.014C36.71 43.014 43.7961 36.0544 43.7961 27.5482C43.7961 19.0421 36.71 12.0825 28.0492 12.0825Z" fill="url(#paint0_linear_33_723)"/>
<path d="M28.0491 8.60281C29.0333 8.60281 29.8206 7.82952 29.8206 6.86292V1.73989C29.8206 0.773287 29.0333 0 28.0491 0C27.0649 0 26.2776 0.773287 26.2776 1.73989V6.86292C26.2776 7.82952 27.0649 8.60281 28.0491 8.60281Z" fill="url(#paint1_linear_33_723)"/>
<path d="M28.0491 46.4937C27.0649 46.4937 26.2776 47.2669 26.2776 48.2335V53.3566C26.2776 54.3232 27.0649 55.0965 28.0491 55.0965C29.0333 55.0965 29.8206 54.3232 29.8206 53.3566V48.2335C29.8206 47.2669 29.0333 46.4937 28.0491 46.4937Z" fill="url(#paint2_linear_33_723)"/>
<path d="M54.3268 25.8086H49.1106C48.1265 25.8086 47.3391 26.5819 47.3391 27.5485C47.3391 28.5151 48.1265 29.2884 49.1106 29.2884H54.3268C55.311 29.2884 56.0983 28.5151 56.0983 27.5485C56.0983 26.5819 55.311 25.8086 54.3268 25.8086Z" fill="url(#paint3_linear_33_723)"/>
<path d="M8.75923 27.5485C8.75923 26.5819 7.97188 25.8086 6.9877 25.8086H1.77153C0.787346 25.8086 0 26.5819 0 27.5485C0 28.5151 0.787346 29.2884 1.77153 29.2884H6.9877C7.97188 29.2884 8.75923 28.5151 8.75923 27.5485Z" fill="url(#paint4_linear_33_723)"/>
<path d="M42.9104 14.6922C42.9104 14.6922 43.7961 14.4989 44.1898 14.2089L47.9297 10.5358C48.6186 9.85918 48.6186 8.79591 47.9297 8.11929C47.2408 7.44266 46.1582 7.44266 45.4692 8.11929L41.7293 11.7924C40.6467 12.8557 41.4341 14.6922 43.0088 14.6922H42.9104Z" fill="url(#paint5_linear_33_723)"/>
<path d="M11.9087 40.8874L8.16879 44.5605C7.08619 45.6237 7.87353 47.4603 9.44822 47.4603C9.94032 47.4603 10.334 47.267 10.7277 46.977L14.4676 43.3039C15.1565 42.6272 15.1565 41.564 14.4676 40.8874C13.7786 40.2107 12.696 40.2107 12.0071 40.8874H11.9087Z" fill="url(#paint6_linear_33_723)"/>
<path d="M44.0914 40.8874C43.4025 40.2107 42.3199 40.2107 41.631 40.8874C40.942 41.564 40.942 42.6272 41.631 43.3039L45.3708 46.977C45.3708 46.977 46.1582 47.4603 46.6503 47.4603C48.225 47.4603 49.0123 45.6237 47.9297 44.5605L44.1898 40.8874H44.0914Z" fill="url(#paint7_linear_33_723)"/>
<path d="M11.9087 14.1122C11.9087 14.1122 12.696 14.5955 13.1881 14.5955C14.7628 14.5955 15.5501 12.759 14.4675 11.6957L10.7276 8.02261C10.0387 7.34598 8.95611 7.34598 8.26718 8.02261C7.57826 8.69923 7.57826 9.7625 8.26718 10.4391L12.0071 14.1122H11.9087Z" fill="url(#paint8_linear_33_723)"/>
</g>
<defs>
<linearGradient id="paint0_linear_33_723" x1="11.3181" y1="2.0298" x2="39.4256" y2="46.4716" gradientUnits="userSpaceOnUse">
<stop stop-color="#FAB300"/>
<stop offset="1" stop-color="#F6DB00"/>
</linearGradient>
<linearGradient id="paint1_linear_33_723" x1="22.0456" y1="-4.83304" x2="50.1522" y2="39.7049" gradientUnits="userSpaceOnUse">
<stop stop-color="#FAB300"/>
<stop offset="1" stop-color="#F6DB00"/>
</linearGradient>
<linearGradient id="paint2_linear_33_723" x1="0.590426" y1="8.79594" x2="28.697" y2="53.3339" gradientUnits="userSpaceOnUse">
<stop stop-color="#FAB300"/>
<stop offset="1" stop-color="#F6DB00"/>
</linearGradient>
<linearGradient id="paint3_linear_33_723" x1="28.0491" y1="-8.60264" x2="56.1557" y2="35.9353" gradientUnits="userSpaceOnUse">
<stop stop-color="#FAB300"/>
<stop offset="1" stop-color="#F6DB00"/>
</linearGradient>
<linearGradient id="paint4_linear_33_723" x1="-5.41301" y1="12.5661" x2="22.6945" y2="57.0078" gradientUnits="userSpaceOnUse">
<stop stop-color="#FAB300"/>
<stop offset="1" stop-color="#F6DB00"/>
</linearGradient>
<linearGradient id="paint5_linear_33_723" x1="30.7065" y1="-10.3429" x2="58.8131" y2="34.1951" gradientUnits="userSpaceOnUse">
<stop stop-color="#FAB300"/>
<stop offset="1" stop-color="#F6DB00"/>
</linearGradient>
<linearGradient id="paint6_linear_33_723" x1="-8.16865" y1="14.209" x2="19.9379" y2="58.747" gradientUnits="userSpaceOnUse">
<stop stop-color="#FAB300"/>
<stop offset="1" stop-color="#F6DB00"/>
</linearGradient>
<linearGradient id="paint7_linear_33_723" x1="15.5501" y1="-0.676785" x2="43.6567" y2="43.8612" gradientUnits="userSpaceOnUse">
<stop stop-color="#FAB300"/>
<stop offset="1" stop-color="#F6DB00"/>
</linearGradient>
<linearGradient id="paint8_linear_33_723" x1="7.08617" y1="4.63948" x2="35.1928" y2="49.1775" gradientUnits="userSpaceOnUse">
<stop stop-color="#FAB300"/>
<stop offset="1" stop-color="#F6DB00"/>
</linearGradient>
<clipPath id="clip0_33_723">
<rect width="56" height="55" fill="white"/>
</clipPath>
</defs>
</svg>
